M48
METRIC,LZ,000.000
;FILE_FORMAT=3:3
;TYPE=PLATED
;Layer: PTH_Through
;EasyEDA v6.5.57, 2026-08-10 04:38:33
;091fce1478774fbf8b481b73ce7482bd,8ff43565fac74a2282a7672486ee48ce,10
;Gerber Generator version 0.2
;Holesize 1 = 0.701 mm
T01C0.701
;Holesize 2 = 0.889 mm
T02C0.889
;Holesize 3 = 0.901 mm
T03C0.901
;Holesize 4 = 0.915 mm
T04C0.915
;Holesize 5 = 1.524 mm
T05C1.524
%
G05
G90
T01
X008398Y-043307
X010398Y-043307
X017796Y-043180
X019796Y-043180
T02
X006858Y-003937
X006858Y-006477
X006858Y-009017
X006858Y-011557
T03
X039878Y-019939
X037338Y-035179
X032257Y-035179
X027177Y-035179
X022097Y-035179
X017017Y-035179
X011937Y-035179
X006857Y-035179
X004318Y-019939
X009399Y-019939
X014479Y-019939
X019559Y-019939
X024639Y-019939
X029719Y-019939
X034798Y-019939
X037338Y-019939
X032258Y-019939
X027178Y-019939
X022098Y-019939
X017018Y-019939
X011938Y-019939
X006858Y-019939
X004318Y-035179
X009398Y-035179
X014478Y-035179
X019558Y-035179
X024638Y-035179
X029718Y-035179
X034798Y-035179
X039878Y-035179
T04
X039497Y-005207
X039497Y-007747
X039497Y-010287
X030480Y-005334
X030480Y-007874
X030480Y-010414
X022225Y-005334
X022225Y-007874
X022225Y-010414
X014605Y-005207
X014605Y-007747
X014605Y-010287
T05
X053594Y-038100
X061214Y-038100
X053594Y-007620
X061214Y-007620
M30
