G04 Layer: TopSilkscreenLayer*
G04 EasyEDA v6.5.57, 2026-08-10 04:38:33*
G04 091fce1478774fbf8b481b73ce7482bd,8ff43565fac74a2282a7672486ee48ce,10*
G04 Gerber Generator version 0.2*
G04 Scale: 100 percent, Rotated: No, Reflected: No *
G04 Dimensions in millimeters *
G04 leading zeros omitted , absolute positions ,4 integer and 5 decimal *
%FSLAX45Y45*%
%MOMM*%

%ADD10C,0.1524*%
%ADD11C,0.2032*%
%ADD12C,0.1500*%
%ADD13C,0.2540*%
%ADD14C,0.1520*%
%ADD15C,0.2030*%
%ADD16C,0.0168*%

%LPD*%
D10*
X993978Y-3987292D02*
G01*
X988644Y-3976878D01*
X978230Y-3966463D01*
X968070Y-3961384D01*
X947242Y-3961384D01*
X936828Y-3966463D01*
X926414Y-3976878D01*
X921080Y-3987292D01*
X916000Y-4003039D01*
X916000Y-4028947D01*
X921080Y-4044442D01*
X926414Y-4054855D01*
X936828Y-4065270D01*
X947242Y-4070350D01*
X968070Y-4070350D01*
X978230Y-4065270D01*
X988644Y-4054855D01*
X993978Y-4044442D01*
X1028268Y-3961384D02*
G01*
X1028268Y-4070350D01*
X1028268Y-3961384D02*
G01*
X1100912Y-4070350D01*
X1100912Y-3961384D02*
G01*
X1100912Y-4070350D01*
X1135202Y-3982212D02*
G01*
X1145616Y-3976878D01*
X1161110Y-3961384D01*
X1161110Y-4070350D01*
X1933778Y-3974592D02*
G01*
X1928444Y-3964178D01*
X1918030Y-3953763D01*
X1907870Y-3948684D01*
X1887042Y-3948684D01*
X1876628Y-3953763D01*
X1866214Y-3964178D01*
X1860880Y-3974592D01*
X1855800Y-3990339D01*
X1855800Y-4016247D01*
X1860880Y-4031742D01*
X1866214Y-4042155D01*
X1876628Y-4052570D01*
X1887042Y-4057650D01*
X1907870Y-4057650D01*
X1918030Y-4052570D01*
X1928444Y-4042155D01*
X1933778Y-4031742D01*
X1968068Y-3948684D02*
G01*
X1968068Y-4057650D01*
X1968068Y-3948684D02*
G01*
X2040712Y-4057650D01*
X2040712Y-3948684D02*
G01*
X2040712Y-4057650D01*
X2080336Y-3974592D02*
G01*
X2080336Y-3969512D01*
X2085416Y-3959097D01*
X2090750Y-3953763D01*
X2100910Y-3948684D01*
X2121738Y-3948684D01*
X2132152Y-3953763D01*
X2137486Y-3959097D01*
X2142566Y-3969512D01*
X2142566Y-3979926D01*
X2137486Y-3990339D01*
X2127072Y-4005834D01*
X2075002Y-4057650D01*
X2147900Y-4057650D01*
X4710684Y-2286000D02*
G01*
X4819650Y-2286000D01*
X4710684Y-2286000D02*
G01*
X4819650Y-2244344D01*
X4710684Y-2202942D02*
G01*
X4819650Y-2244344D01*
X4710684Y-2202942D02*
G01*
X4819650Y-2202942D01*
X4731511Y-2168652D02*
G01*
X4726177Y-2158237D01*
X4710684Y-2142489D01*
X4819650Y-2142489D01*
D11*
X5651502Y-2794000D02*
G01*
X5845304Y-2794000D01*
X5651502Y-2794000D02*
G01*
X5845304Y-2720086D01*
X5651502Y-2646171D02*
G01*
X5845304Y-2720086D01*
X5651502Y-2646171D02*
G01*
X5845304Y-2646171D01*
X5651502Y-2520695D02*
G01*
X5845304Y-2520695D01*
X5651502Y-2585212D02*
G01*
X5651502Y-2455926D01*
X5651502Y-2376423D02*
G01*
X5651502Y-2274823D01*
X5725416Y-2330450D01*
X5725416Y-2302510D01*
X5734560Y-2284221D01*
X5743704Y-2274823D01*
X5771390Y-2265679D01*
X5789932Y-2265679D01*
X5817618Y-2274823D01*
X5836160Y-2293365D01*
X5845304Y-2321052D01*
X5845304Y-2348737D01*
X5836160Y-2376423D01*
X5827016Y-2385821D01*
X5808474Y-2394965D01*
X5679188Y-2093976D02*
G01*
X5660646Y-2103120D01*
X5651502Y-2130805D01*
X5651502Y-2149347D01*
X5660646Y-2177034D01*
X5688332Y-2195576D01*
X5734560Y-2204720D01*
X5780788Y-2204720D01*
X5817618Y-2195576D01*
X5836160Y-2177034D01*
X5845304Y-2149347D01*
X5845304Y-2139950D01*
X5836160Y-2112263D01*
X5817618Y-2093976D01*
X5789932Y-2084578D01*
X5780788Y-2084578D01*
X5753102Y-2093976D01*
X5734560Y-2112263D01*
X5725416Y-2139950D01*
X5725416Y-2149347D01*
X5734560Y-2177034D01*
X5753102Y-2195576D01*
X5780788Y-2204720D01*
X5651502Y-1968245D02*
G01*
X5660646Y-1995931D01*
X5688332Y-2014473D01*
X5734560Y-2023618D01*
X5762246Y-2023618D01*
X5808474Y-2014473D01*
X5836160Y-1995931D01*
X5845304Y-1968245D01*
X5845304Y-1949704D01*
X5836160Y-1922018D01*
X5808474Y-1903729D01*
X5762246Y-1894331D01*
X5734560Y-1894331D01*
X5688332Y-1903729D01*
X5660646Y-1922018D01*
X5651502Y-1949704D01*
X5651502Y-1968245D01*
X5651502Y-1787144D02*
G01*
X5660646Y-1814829D01*
X5679188Y-1824228D01*
X5697476Y-1824228D01*
X5716018Y-1814829D01*
X5725416Y-1796542D01*
X5734560Y-1759457D01*
X5743704Y-1731771D01*
X5762246Y-1713229D01*
X5780788Y-1704086D01*
X5808474Y-1704086D01*
X5827016Y-1713229D01*
X5836160Y-1722628D01*
X5845304Y-1750313D01*
X5845304Y-1787144D01*
X5836160Y-1814829D01*
X5827016Y-1824228D01*
X5808474Y-1833371D01*
X5780788Y-1833371D01*
X5762246Y-1824228D01*
X5743704Y-1805686D01*
X5734560Y-1778000D01*
X5725416Y-1741170D01*
X5716018Y-1722628D01*
X5697476Y-1713229D01*
X5679188Y-1713229D01*
X5660646Y-1722628D01*
X5651502Y-1750313D01*
X5651502Y-1787144D01*
X6284722Y-1612900D02*
G01*
X6478524Y-1538986D01*
X6284722Y-1465071D02*
G01*
X6478524Y-1538986D01*
X6284722Y-1348739D02*
G01*
X6293865Y-1367281D01*
X6312408Y-1385570D01*
X6330950Y-1394968D01*
X6358636Y-1404112D01*
X6404609Y-1404112D01*
X6432550Y-1394968D01*
X6450838Y-1385570D01*
X6469379Y-1367281D01*
X6478524Y-1348739D01*
X6478524Y-1311910D01*
X6469379Y-1293368D01*
X6450838Y-1274826D01*
X6432550Y-1265681D01*
X6404609Y-1256284D01*
X6358636Y-1256284D01*
X6330950Y-1265681D01*
X6312408Y-1274826D01*
X6293865Y-1293368D01*
X6284722Y-1311910D01*
X6284722Y-1348739D01*
X6284722Y-1195323D02*
G01*
X6423152Y-1195323D01*
X6450838Y-1186179D01*
X6469379Y-1167637D01*
X6478524Y-1139952D01*
X6478524Y-1121410D01*
X6469379Y-1093723D01*
X6450838Y-1075436D01*
X6423152Y-1066037D01*
X6284722Y-1066037D01*
X6284722Y-940562D02*
G01*
X6478524Y-940562D01*
X6284722Y-1005078D02*
G01*
X6284722Y-875792D01*
X6312408Y-731773D02*
G01*
X6478524Y-731773D01*
X6395465Y-814831D02*
G01*
X6395465Y-648715D01*
X4925822Y-1574800D02*
G01*
X5119624Y-1500886D01*
X4925822Y-1426971D02*
G01*
X5119624Y-1500886D01*
X4925822Y-1310639D02*
G01*
X4934965Y-1329181D01*
X4953508Y-1347470D01*
X4972050Y-1356868D01*
X4999736Y-1366012D01*
X5045709Y-1366012D01*
X5073650Y-1356868D01*
X5091938Y-1347470D01*
X5110479Y-1329181D01*
X5119624Y-1310639D01*
X5119624Y-1273810D01*
X5110479Y-1255268D01*
X5091938Y-1236726D01*
X5073650Y-1227581D01*
X5045709Y-1218184D01*
X4999736Y-1218184D01*
X4972050Y-1227581D01*
X4953508Y-1236726D01*
X4934965Y-1255268D01*
X4925822Y-1273810D01*
X4925822Y-1310639D01*
X4925822Y-1157223D02*
G01*
X5064252Y-1157223D01*
X5091938Y-1148079D01*
X5110479Y-1129537D01*
X5119624Y-1101852D01*
X5119624Y-1083310D01*
X5110479Y-1055623D01*
X5091938Y-1037336D01*
X5064252Y-1027937D01*
X4925822Y-1027937D01*
X4925822Y-902462D02*
G01*
X5119624Y-902462D01*
X4925822Y-966978D02*
G01*
X4925822Y-837692D01*
X5036565Y-776731D02*
G01*
X5036565Y-610615D01*
X6310122Y-4000500D02*
G01*
X6503924Y-3926586D01*
X6310122Y-3852671D02*
G01*
X6503924Y-3926586D01*
X6310122Y-3791712D02*
G01*
X6503924Y-3791712D01*
X6310122Y-3730752D02*
G01*
X6503924Y-3730752D01*
X6310122Y-3730752D02*
G01*
X6503924Y-3601465D01*
X6310122Y-3601465D02*
G01*
X6503924Y-3601465D01*
X6337808Y-3457447D02*
G01*
X6503924Y-3457447D01*
X6420865Y-3540505D02*
G01*
X6420865Y-3374389D01*
X4938522Y-4013200D02*
G01*
X5132324Y-3939286D01*
X4938522Y-3865371D02*
G01*
X5132324Y-3939286D01*
X4938522Y-3804412D02*
G01*
X5132324Y-3804412D01*
X4938522Y-3743452D02*
G01*
X5132324Y-3743452D01*
X4938522Y-3743452D02*
G01*
X5132324Y-3614165D01*
X4938522Y-3614165D02*
G01*
X5132324Y-3614165D01*
X5049265Y-3553205D02*
G01*
X5049265Y-3387089D01*
D10*
X2133600Y-1700784D02*
G01*
X2133600Y-1778762D01*
X2138679Y-1794255D01*
X2149093Y-1804670D01*
X2164841Y-1809750D01*
X2175256Y-1809750D01*
X2190750Y-1804670D01*
X2201163Y-1794255D01*
X2206243Y-1778762D01*
X2206243Y-1700784D01*
X2240534Y-1721612D02*
G01*
X2250947Y-1716278D01*
X2266695Y-1700784D01*
X2266695Y-1809750D01*
D12*
X385762Y-3354905D02*
G01*
X481266Y-3354905D01*
X385762Y-3354905D02*
G01*
X385762Y-3323155D01*
X390334Y-3309439D01*
X399224Y-3300295D01*
X408368Y-3295723D01*
X422084Y-3291151D01*
X444690Y-3291151D01*
X458406Y-3295723D01*
X467550Y-3300295D01*
X476694Y-3309439D01*
X481266Y-3323155D01*
X481266Y-3354905D01*
X403796Y-3261179D02*
G01*
X399224Y-3252289D01*
X385762Y-3238573D01*
X481266Y-3238573D01*
X385762Y-3199457D02*
G01*
X385762Y-3149419D01*
X422084Y-3176597D01*
X422084Y-3163135D01*
X426656Y-3153991D01*
X431228Y-3149419D01*
X444690Y-3144847D01*
X453834Y-3144847D01*
X467550Y-3149419D01*
X476694Y-3158563D01*
X481266Y-3172279D01*
X481266Y-3185741D01*
X476694Y-3199457D01*
X472122Y-3204029D01*
X462978Y-3208601D01*
X639757Y-3345766D02*
G01*
X639757Y-3295728D01*
X676079Y-3323160D01*
X676079Y-3309444D01*
X680651Y-3300300D01*
X685223Y-3295728D01*
X698685Y-3291156D01*
X707829Y-3291156D01*
X721545Y-3295728D01*
X730689Y-3304872D01*
X735261Y-3318588D01*
X735261Y-3332304D01*
X730689Y-3345766D01*
X726117Y-3350338D01*
X716973Y-3354910D01*
X639757Y-3261184D02*
G01*
X735261Y-3224862D01*
X639757Y-3188540D02*
G01*
X735261Y-3224862D01*
X639757Y-3149424D02*
G01*
X639757Y-3099386D01*
X676079Y-3126818D01*
X676079Y-3113102D01*
X680651Y-3103958D01*
X685223Y-3099386D01*
X698685Y-3094814D01*
X707829Y-3094814D01*
X721545Y-3099386D01*
X730689Y-3108530D01*
X735261Y-3122246D01*
X735261Y-3135708D01*
X730689Y-3149424D01*
X726117Y-3153996D01*
X716973Y-3158568D01*
X893757Y-3354910D02*
G01*
X989261Y-3354910D01*
X893757Y-3354910D02*
G01*
X893757Y-3314016D01*
X898329Y-3300300D01*
X902901Y-3295728D01*
X911791Y-3291156D01*
X920935Y-3291156D01*
X930079Y-3295728D01*
X934651Y-3300300D01*
X939223Y-3314016D01*
X939223Y-3354910D01*
X939223Y-3323160D02*
G01*
X989261Y-3291156D01*
X893757Y-3261184D02*
G01*
X989261Y-3261184D01*
X893757Y-3261184D02*
G01*
X893757Y-3202256D01*
X939223Y-3261184D02*
G01*
X939223Y-3224862D01*
X989261Y-3261184D02*
G01*
X989261Y-3202256D01*
X893757Y-3172284D02*
G01*
X989261Y-3172284D01*
X893757Y-3172284D02*
G01*
X893757Y-3113102D01*
X939223Y-3172284D02*
G01*
X939223Y-3135708D01*
X1147759Y-3318586D02*
G01*
X1243263Y-3354908D01*
X1147759Y-3318586D02*
G01*
X1243263Y-3282264D01*
X1211259Y-3341192D02*
G01*
X1211259Y-3295726D01*
X1147759Y-3224860D02*
G01*
X1152331Y-3238576D01*
X1165793Y-3247720D01*
X1188653Y-3252292D01*
X1202115Y-3252292D01*
X1224975Y-3247720D01*
X1238691Y-3238576D01*
X1243263Y-3224860D01*
X1243263Y-3215716D01*
X1238691Y-3202254D01*
X1224975Y-3193110D01*
X1202115Y-3188538D01*
X1188653Y-3188538D01*
X1165793Y-3193110D01*
X1152331Y-3202254D01*
X1147759Y-3215716D01*
X1147759Y-3224860D01*
X1401757Y-3318588D02*
G01*
X1497261Y-3354910D01*
X1401757Y-3318588D02*
G01*
X1497261Y-3282266D01*
X1465257Y-3341194D02*
G01*
X1465257Y-3295728D01*
X1419791Y-3252294D02*
G01*
X1415219Y-3243150D01*
X1401757Y-3229434D01*
X1497261Y-3229434D01*
X1655759Y-3318586D02*
G01*
X1751263Y-3354908D01*
X1655759Y-3318586D02*
G01*
X1751263Y-3282264D01*
X1719259Y-3341192D02*
G01*
X1719259Y-3295726D01*
X1678365Y-3247720D02*
G01*
X1673793Y-3247720D01*
X1664903Y-3243148D01*
X1660331Y-3238576D01*
X1655759Y-3229432D01*
X1655759Y-3211398D01*
X1660331Y-3202254D01*
X1664903Y-3197682D01*
X1673793Y-3193110D01*
X1682937Y-3193110D01*
X1692081Y-3197682D01*
X1705797Y-3206826D01*
X1751263Y-3252292D01*
X1751263Y-3188538D01*
X1909759Y-3318586D02*
G01*
X2005263Y-3354908D01*
X1909759Y-3318586D02*
G01*
X2005263Y-3282264D01*
X1973259Y-3341192D02*
G01*
X1973259Y-3295726D01*
X1909759Y-3243148D02*
G01*
X1909759Y-3193110D01*
X1946081Y-3220288D01*
X1946081Y-3206826D01*
X1950653Y-3197682D01*
X1955225Y-3193110D01*
X1968687Y-3188538D01*
X1977831Y-3188538D01*
X1991547Y-3193110D01*
X2000691Y-3202254D01*
X2005263Y-3215716D01*
X2005263Y-3229432D01*
X2000691Y-3243148D01*
X1996119Y-3247720D01*
X1986975Y-3252292D01*
X2163762Y-3318583D02*
G01*
X2259266Y-3354905D01*
X2163762Y-3318583D02*
G01*
X2259266Y-3282261D01*
X2227262Y-3341189D02*
G01*
X2227262Y-3295723D01*
X2163762Y-3206823D02*
G01*
X2227262Y-3252289D01*
X2227262Y-3183963D01*
X2163762Y-3206823D02*
G01*
X2259266Y-3206823D01*
X2417759Y-3318586D02*
G01*
X2513263Y-3354908D01*
X2417759Y-3318586D02*
G01*
X2513263Y-3282264D01*
X2481259Y-3341192D02*
G01*
X2481259Y-3295726D01*
X2417759Y-3197682D02*
G01*
X2417759Y-3243148D01*
X2458653Y-3247720D01*
X2454081Y-3243148D01*
X2449509Y-3229432D01*
X2449509Y-3215716D01*
X2454081Y-3202254D01*
X2463225Y-3193110D01*
X2476687Y-3188538D01*
X2485831Y-3188538D01*
X2499547Y-3193110D01*
X2508691Y-3202254D01*
X2513263Y-3215716D01*
X2513263Y-3229432D01*
X2508691Y-3243148D01*
X2504119Y-3247720D01*
X2494975Y-3252292D01*
X2671762Y-3318583D02*
G01*
X2767266Y-3354905D01*
X2671762Y-3318583D02*
G01*
X2767266Y-3282261D01*
X2735262Y-3341189D02*
G01*
X2735262Y-3295723D01*
X2685224Y-3197679D02*
G01*
X2676334Y-3202251D01*
X2671762Y-3215713D01*
X2671762Y-3224857D01*
X2676334Y-3238573D01*
X2689796Y-3247717D01*
X2712656Y-3252289D01*
X2735262Y-3252289D01*
X2753550Y-3247717D01*
X2762694Y-3238573D01*
X2767266Y-3224857D01*
X2767266Y-3220285D01*
X2762694Y-3206823D01*
X2753550Y-3197679D01*
X2739834Y-3193107D01*
X2735262Y-3193107D01*
X2721800Y-3197679D01*
X2712656Y-3206823D01*
X2708084Y-3220285D01*
X2708084Y-3224857D01*
X2712656Y-3238573D01*
X2721800Y-3247717D01*
X2735262Y-3252289D01*
X2925759Y-3318586D02*
G01*
X3021263Y-3354908D01*
X2925759Y-3318586D02*
G01*
X3021263Y-3282264D01*
X2989259Y-3341192D02*
G01*
X2989259Y-3295726D01*
X2925759Y-3188538D02*
G01*
X3021263Y-3234004D01*
X2925759Y-3252292D02*
G01*
X2925759Y-3188538D01*
X3179759Y-3300298D02*
G01*
X3179759Y-3345764D01*
X3220653Y-3350336D01*
X3216081Y-3345764D01*
X3211509Y-3332302D01*
X3211509Y-3318586D01*
X3216081Y-3304870D01*
X3225225Y-3295726D01*
X3238687Y-3291154D01*
X3247831Y-3291154D01*
X3261547Y-3295726D01*
X3270691Y-3304870D01*
X3275263Y-3318586D01*
X3275263Y-3332302D01*
X3270691Y-3345764D01*
X3266119Y-3350336D01*
X3256975Y-3354908D01*
X3179759Y-3261182D02*
G01*
X3275263Y-3224860D01*
X3179759Y-3188538D02*
G01*
X3275263Y-3224860D01*
X3433757Y-3354910D02*
G01*
X3529261Y-3354910D01*
X3433757Y-3354910D02*
G01*
X3433757Y-3314016D01*
X3438329Y-3300300D01*
X3442901Y-3295728D01*
X3451791Y-3291156D01*
X3460935Y-3291156D01*
X3470079Y-3295728D01*
X3474651Y-3300300D01*
X3479223Y-3314016D01*
X3479223Y-3354910D01*
X3479223Y-3323160D02*
G01*
X3529261Y-3291156D01*
X3447219Y-3197684D02*
G01*
X3438329Y-3206828D01*
X3433757Y-3220290D01*
X3433757Y-3238578D01*
X3438329Y-3252294D01*
X3447219Y-3261184D01*
X3456363Y-3261184D01*
X3465507Y-3256612D01*
X3470079Y-3252294D01*
X3474651Y-3243150D01*
X3483795Y-3215718D01*
X3488113Y-3206828D01*
X3492685Y-3202256D01*
X3501829Y-3197684D01*
X3515545Y-3197684D01*
X3524689Y-3206828D01*
X3529261Y-3220290D01*
X3529261Y-3238578D01*
X3524689Y-3252294D01*
X3515545Y-3261184D01*
X3433757Y-3135708D02*
G01*
X3529261Y-3135708D01*
X3433757Y-3167712D02*
G01*
X3433757Y-3103958D01*
X3710365Y-3286836D02*
G01*
X3701221Y-3291154D01*
X3692331Y-3300298D01*
X3687759Y-3309442D01*
X3687759Y-3327730D01*
X3692331Y-3336620D01*
X3701221Y-3345764D01*
X3710365Y-3350336D01*
X3724081Y-3354908D01*
X3746687Y-3354908D01*
X3760403Y-3350336D01*
X3769547Y-3345764D01*
X3778691Y-3336620D01*
X3783263Y-3327730D01*
X3783263Y-3309442D01*
X3778691Y-3300298D01*
X3769547Y-3291154D01*
X3760403Y-3286836D01*
X3746687Y-3286836D01*
X3746687Y-3309442D02*
G01*
X3746687Y-3286836D01*
X3687759Y-3256610D02*
G01*
X3783263Y-3256610D01*
X3687759Y-3256610D02*
G01*
X3783263Y-3193110D01*
X3687759Y-3193110D02*
G01*
X3783263Y-3193110D01*
X3687759Y-3163138D02*
G01*
X3783263Y-3163138D01*
X3687759Y-3163138D02*
G01*
X3687759Y-3131388D01*
X3692331Y-3117672D01*
X3701221Y-3108528D01*
X3710365Y-3103956D01*
X3724081Y-3099384D01*
X3746687Y-3099384D01*
X3760403Y-3103956D01*
X3769547Y-3108528D01*
X3778691Y-3117672D01*
X3783263Y-3131388D01*
X3783263Y-3163138D01*
X3941762Y-3354905D02*
G01*
X4037266Y-3318583D01*
X3941762Y-3282261D02*
G01*
X4037266Y-3318583D01*
X3941762Y-3252289D02*
G01*
X4037266Y-3252289D01*
X3941762Y-3222063D02*
G01*
X4037266Y-3222063D01*
X3941762Y-3222063D02*
G01*
X4037266Y-3158563D01*
X3941762Y-3158563D02*
G01*
X4037266Y-3158563D01*
X383758Y-2366007D02*
G01*
X479262Y-2366007D01*
X383758Y-2366007D02*
G01*
X383758Y-2334257D01*
X388330Y-2320541D01*
X397220Y-2311397D01*
X406364Y-2306825D01*
X420080Y-2302253D01*
X442686Y-2302253D01*
X456402Y-2306825D01*
X465546Y-2311397D01*
X474690Y-2320541D01*
X479262Y-2334257D01*
X479262Y-2366007D01*
X401792Y-2272281D02*
G01*
X397220Y-2263391D01*
X383758Y-2249675D01*
X479262Y-2249675D01*
X406364Y-2215131D02*
G01*
X401792Y-2215131D01*
X392902Y-2210559D01*
X388330Y-2205987D01*
X383758Y-2196843D01*
X383758Y-2178809D01*
X388330Y-2169665D01*
X392902Y-2165093D01*
X401792Y-2160521D01*
X410936Y-2160521D01*
X420080Y-2165093D01*
X433796Y-2174237D01*
X479262Y-2219703D01*
X479262Y-2155949D01*
X637755Y-2325113D02*
G01*
X733259Y-2325113D01*
X637755Y-2325113D02*
G01*
X637755Y-2293363D01*
X642327Y-2279647D01*
X651217Y-2270503D01*
X660361Y-2265931D01*
X674077Y-2261359D01*
X696683Y-2261359D01*
X710399Y-2265931D01*
X719543Y-2270503D01*
X728687Y-2279647D01*
X733259Y-2293363D01*
X733259Y-2325113D01*
X655789Y-2231387D02*
G01*
X651217Y-2222497D01*
X637755Y-2208781D01*
X733259Y-2208781D01*
X655789Y-2178809D02*
G01*
X651217Y-2169665D01*
X637755Y-2155949D01*
X733259Y-2155949D01*
X891758Y-2366007D02*
G01*
X987262Y-2366007D01*
X891758Y-2366007D02*
G01*
X891758Y-2334257D01*
X896330Y-2320541D01*
X905220Y-2311397D01*
X914364Y-2306825D01*
X928080Y-2302253D01*
X950686Y-2302253D01*
X964402Y-2306825D01*
X973546Y-2311397D01*
X982690Y-2320541D01*
X987262Y-2334257D01*
X987262Y-2366007D01*
X909792Y-2272281D02*
G01*
X905220Y-2263391D01*
X891758Y-2249675D01*
X987262Y-2249675D01*
X891758Y-2192271D02*
G01*
X896330Y-2205987D01*
X909792Y-2215131D01*
X932652Y-2219703D01*
X946114Y-2219703D01*
X968974Y-2215131D01*
X982690Y-2205987D01*
X987262Y-2192271D01*
X987262Y-2183381D01*
X982690Y-2169665D01*
X968974Y-2160521D01*
X946114Y-2155949D01*
X932652Y-2155949D01*
X909792Y-2160521D01*
X896330Y-2169665D01*
X891758Y-2183381D01*
X891758Y-2192271D01*
X1145758Y-2308603D02*
G01*
X1241262Y-2308603D01*
X1145758Y-2308603D02*
G01*
X1145758Y-2276853D01*
X1150330Y-2263137D01*
X1159220Y-2253993D01*
X1168364Y-2249421D01*
X1182080Y-2244849D01*
X1204686Y-2244849D01*
X1218402Y-2249421D01*
X1227546Y-2253993D01*
X1236690Y-2263137D01*
X1241262Y-2276853D01*
X1241262Y-2308603D01*
X1177508Y-2155949D02*
G01*
X1191224Y-2160521D01*
X1200114Y-2169411D01*
X1204686Y-2183127D01*
X1204686Y-2187699D01*
X1200114Y-2201415D01*
X1191224Y-2210305D01*
X1177508Y-2214877D01*
X1172936Y-2214877D01*
X1159220Y-2210305D01*
X1150330Y-2201415D01*
X1145758Y-2187699D01*
X1145758Y-2183127D01*
X1150330Y-2169411D01*
X1159220Y-2160521D01*
X1177508Y-2155949D01*
X1200114Y-2155949D01*
X1222974Y-2160521D01*
X1236690Y-2169411D01*
X1241262Y-2183127D01*
X1241262Y-2192271D01*
X1236690Y-2205987D01*
X1227546Y-2210305D01*
X1399755Y-2313175D02*
G01*
X1495259Y-2313175D01*
X1399755Y-2313175D02*
G01*
X1399755Y-2281425D01*
X1404327Y-2267709D01*
X1413217Y-2258565D01*
X1422361Y-2253993D01*
X1436077Y-2249421D01*
X1458683Y-2249421D01*
X1472399Y-2253993D01*
X1481543Y-2258565D01*
X1490687Y-2267709D01*
X1495259Y-2281425D01*
X1495259Y-2313175D01*
X1399755Y-2196843D02*
G01*
X1404327Y-2210559D01*
X1413217Y-2214877D01*
X1422361Y-2214877D01*
X1431505Y-2210559D01*
X1436077Y-2201415D01*
X1440649Y-2183127D01*
X1445221Y-2169665D01*
X1454111Y-2160521D01*
X1463255Y-2155949D01*
X1476971Y-2155949D01*
X1486115Y-2160521D01*
X1490687Y-2165093D01*
X1495259Y-2178555D01*
X1495259Y-2196843D01*
X1490687Y-2210559D01*
X1486115Y-2214877D01*
X1476971Y-2219449D01*
X1463255Y-2219449D01*
X1454111Y-2214877D01*
X1445221Y-2205987D01*
X1440649Y-2192271D01*
X1436077Y-2173983D01*
X1431505Y-2165093D01*
X1422361Y-2160521D01*
X1413217Y-2160521D01*
X1404327Y-2165093D01*
X1399755Y-2178555D01*
X1399755Y-2196843D01*
X1653758Y-2313175D02*
G01*
X1749262Y-2313175D01*
X1653758Y-2313175D02*
G01*
X1653758Y-2281425D01*
X1658330Y-2267709D01*
X1667220Y-2258565D01*
X1676364Y-2253993D01*
X1690080Y-2249421D01*
X1712686Y-2249421D01*
X1726402Y-2253993D01*
X1735546Y-2258565D01*
X1744690Y-2267709D01*
X1749262Y-2281425D01*
X1749262Y-2313175D01*
X1653758Y-2155949D02*
G01*
X1749262Y-2201415D01*
X1653758Y-2219449D02*
G01*
X1653758Y-2155949D01*
X1907758Y-2308603D02*
G01*
X2003262Y-2308603D01*
X1907758Y-2308603D02*
G01*
X1907758Y-2276853D01*
X1912330Y-2263137D01*
X1921220Y-2253993D01*
X1930364Y-2249421D01*
X1944080Y-2244849D01*
X1966686Y-2244849D01*
X1980402Y-2249421D01*
X1989546Y-2253993D01*
X1998690Y-2263137D01*
X2003262Y-2276853D01*
X2003262Y-2308603D01*
X1921220Y-2160521D02*
G01*
X1912330Y-2165093D01*
X1907758Y-2178555D01*
X1907758Y-2187699D01*
X1912330Y-2201415D01*
X1925792Y-2210305D01*
X1948652Y-2214877D01*
X1971258Y-2214877D01*
X1989546Y-2210305D01*
X1998690Y-2201415D01*
X2003262Y-2187699D01*
X2003262Y-2183127D01*
X1998690Y-2169411D01*
X1989546Y-2160521D01*
X1975830Y-2155949D01*
X1971258Y-2155949D01*
X1957796Y-2160521D01*
X1948652Y-2169411D01*
X1944080Y-2183127D01*
X1944080Y-2187699D01*
X1948652Y-2201415D01*
X1957796Y-2210305D01*
X1971258Y-2214877D01*
X2161755Y-2313175D02*
G01*
X2257259Y-2313175D01*
X2161755Y-2313175D02*
G01*
X2161755Y-2281425D01*
X2166327Y-2267709D01*
X2175217Y-2258565D01*
X2184361Y-2253993D01*
X2198077Y-2249421D01*
X2220683Y-2249421D01*
X2234399Y-2253993D01*
X2243543Y-2258565D01*
X2252687Y-2267709D01*
X2257259Y-2281425D01*
X2257259Y-2313175D01*
X2161755Y-2165093D02*
G01*
X2161755Y-2210559D01*
X2202649Y-2214877D01*
X2198077Y-2210559D01*
X2193505Y-2196843D01*
X2193505Y-2183127D01*
X2198077Y-2169665D01*
X2207221Y-2160521D01*
X2220683Y-2155949D01*
X2229827Y-2155949D01*
X2243543Y-2160521D01*
X2252687Y-2169665D01*
X2257259Y-2183127D01*
X2257259Y-2196843D01*
X2252687Y-2210559D01*
X2248115Y-2214877D01*
X2238971Y-2219449D01*
X2415758Y-2317747D02*
G01*
X2511262Y-2317747D01*
X2415758Y-2317747D02*
G01*
X2415758Y-2285997D01*
X2420330Y-2272281D01*
X2429220Y-2263137D01*
X2438364Y-2258565D01*
X2452080Y-2253993D01*
X2474686Y-2253993D01*
X2488402Y-2258565D01*
X2497546Y-2263137D01*
X2506690Y-2272281D01*
X2511262Y-2285997D01*
X2511262Y-2317747D01*
X2415758Y-2178555D02*
G01*
X2479258Y-2224021D01*
X2479258Y-2155949D01*
X2415758Y-2178555D02*
G01*
X2511262Y-2178555D01*
X2669758Y-2313175D02*
G01*
X2765262Y-2313175D01*
X2669758Y-2313175D02*
G01*
X2669758Y-2281425D01*
X2674330Y-2267709D01*
X2683220Y-2258565D01*
X2692364Y-2253993D01*
X2706080Y-2249421D01*
X2728686Y-2249421D01*
X2742402Y-2253993D01*
X2751546Y-2258565D01*
X2760690Y-2267709D01*
X2765262Y-2281425D01*
X2765262Y-2313175D01*
X2669758Y-2210559D02*
G01*
X2669758Y-2160521D01*
X2706080Y-2187699D01*
X2706080Y-2173983D01*
X2710652Y-2165093D01*
X2715224Y-2160521D01*
X2728686Y-2155949D01*
X2737830Y-2155949D01*
X2751546Y-2160521D01*
X2760690Y-2169665D01*
X2765262Y-2183127D01*
X2765262Y-2196843D01*
X2760690Y-2210559D01*
X2756118Y-2214877D01*
X2746974Y-2219449D01*
X2923755Y-2313175D02*
G01*
X3019259Y-2313175D01*
X2923755Y-2313175D02*
G01*
X2923755Y-2281425D01*
X2928327Y-2267709D01*
X2937217Y-2258565D01*
X2946361Y-2253993D01*
X2960077Y-2249421D01*
X2982683Y-2249421D01*
X2996399Y-2253993D01*
X3005543Y-2258565D01*
X3014687Y-2267709D01*
X3019259Y-2281425D01*
X3019259Y-2313175D01*
X2946361Y-2214877D02*
G01*
X2941789Y-2214877D01*
X2932899Y-2210559D01*
X2928327Y-2205987D01*
X2923755Y-2196843D01*
X2923755Y-2178555D01*
X2928327Y-2169665D01*
X2932899Y-2165093D01*
X2941789Y-2160521D01*
X2950933Y-2160521D01*
X2960077Y-2165093D01*
X2973793Y-2173983D01*
X3019259Y-2219449D01*
X3019259Y-2155949D01*
X3200364Y-2343401D02*
G01*
X3191220Y-2347719D01*
X3182330Y-2356863D01*
X3177758Y-2366007D01*
X3177758Y-2384295D01*
X3182330Y-2393185D01*
X3191220Y-2402329D01*
X3200364Y-2406901D01*
X3214080Y-2411473D01*
X3236686Y-2411473D01*
X3250402Y-2406901D01*
X3259546Y-2402329D01*
X3268690Y-2393185D01*
X3273262Y-2384295D01*
X3273262Y-2366007D01*
X3268690Y-2356863D01*
X3259546Y-2347719D01*
X3250402Y-2343401D01*
X3236686Y-2343401D01*
X3236686Y-2366007D02*
G01*
X3236686Y-2343401D01*
X3177758Y-2313175D02*
G01*
X3273262Y-2313175D01*
X3177758Y-2313175D02*
G01*
X3273262Y-2249675D01*
X3177758Y-2249675D02*
G01*
X3273262Y-2249675D01*
X3177758Y-2219703D02*
G01*
X3273262Y-2219703D01*
X3177758Y-2219703D02*
G01*
X3177758Y-2187953D01*
X3182330Y-2174237D01*
X3191220Y-2165093D01*
X3200364Y-2160521D01*
X3214080Y-2155949D01*
X3236686Y-2155949D01*
X3250402Y-2160521D01*
X3259546Y-2165093D01*
X3268690Y-2174237D01*
X3273262Y-2187953D01*
X3273262Y-2219703D01*
X3431758Y-2406901D02*
G01*
X3527262Y-2406901D01*
X3431758Y-2406901D02*
G01*
X3431758Y-2366007D01*
X3436330Y-2352291D01*
X3440902Y-2347719D01*
X3449792Y-2343147D01*
X3458936Y-2343147D01*
X3468080Y-2347719D01*
X3472652Y-2352291D01*
X3477224Y-2366007D01*
X3477224Y-2406901D01*
X3477224Y-2375151D02*
G01*
X3527262Y-2343147D01*
X3445220Y-2249675D02*
G01*
X3436330Y-2258819D01*
X3431758Y-2272281D01*
X3431758Y-2290569D01*
X3436330Y-2304285D01*
X3445220Y-2313175D01*
X3454364Y-2313175D01*
X3463508Y-2308603D01*
X3468080Y-2304285D01*
X3472652Y-2295141D01*
X3481796Y-2267709D01*
X3486114Y-2258819D01*
X3490686Y-2254247D01*
X3499830Y-2249675D01*
X3513546Y-2249675D01*
X3522690Y-2258819D01*
X3527262Y-2272281D01*
X3527262Y-2290569D01*
X3522690Y-2304285D01*
X3513546Y-2313175D01*
X3431758Y-2187699D02*
G01*
X3527262Y-2187699D01*
X3431758Y-2219703D02*
G01*
X3431758Y-2155949D01*
X3685755Y-2406901D02*
G01*
X3781259Y-2406901D01*
X3685755Y-2406901D02*
G01*
X3685755Y-2366007D01*
X3690327Y-2352291D01*
X3694899Y-2347719D01*
X3703789Y-2343147D01*
X3712933Y-2343147D01*
X3722077Y-2347719D01*
X3726649Y-2352291D01*
X3731221Y-2366007D01*
X3731221Y-2406901D01*
X3731221Y-2375151D02*
G01*
X3781259Y-2343147D01*
X3685755Y-2313175D02*
G01*
X3781259Y-2249675D01*
X3685755Y-2249675D02*
G01*
X3781259Y-2313175D01*
X3685755Y-2219703D02*
G01*
X3781259Y-2219703D01*
X3685755Y-2219703D02*
G01*
X3685755Y-2187699D01*
X3690327Y-2174237D01*
X3699217Y-2165093D01*
X3708361Y-2160521D01*
X3722077Y-2155949D01*
X3744683Y-2155949D01*
X3758399Y-2160521D01*
X3767543Y-2165093D01*
X3776687Y-2174237D01*
X3781259Y-2187699D01*
X3781259Y-2219703D01*
X3939758Y-2375151D02*
G01*
X4035262Y-2375151D01*
X3939758Y-2406901D02*
G01*
X3939758Y-2343147D01*
X3939758Y-2313175D02*
G01*
X4035262Y-2249675D01*
X3939758Y-2249675D02*
G01*
X4035262Y-2313175D01*
X3939758Y-2219703D02*
G01*
X4035262Y-2219703D01*
X3939758Y-2219703D02*
G01*
X3939758Y-2187699D01*
X3944330Y-2174237D01*
X3953220Y-2165093D01*
X3962364Y-2160521D01*
X3976080Y-2155949D01*
X3998686Y-2155949D01*
X4012402Y-2160521D01*
X4021546Y-2165093D01*
X4030690Y-2174237D01*
X4035262Y-2187699D01*
X4035262Y-2219703D01*
D10*
X3949700Y-125984D02*
G01*
X3949700Y-203962D01*
X3954779Y-219455D01*
X3965193Y-229870D01*
X3980941Y-234950D01*
X3991356Y-234950D01*
X4006850Y-229870D01*
X4017263Y-219455D01*
X4022343Y-203962D01*
X4022343Y-125984D01*
X4061968Y-151892D02*
G01*
X4061968Y-146812D01*
X4067047Y-136397D01*
X4072381Y-131063D01*
X4082795Y-125984D01*
X4103370Y-125984D01*
X4113784Y-131063D01*
X4119118Y-136397D01*
X4124197Y-146812D01*
X4124197Y-157226D01*
X4119118Y-167639D01*
X4108704Y-183134D01*
X4056634Y-234950D01*
X4129531Y-234950D01*
X3048000Y-138684D02*
G01*
X3048000Y-216662D01*
X3053079Y-232155D01*
X3063493Y-242570D01*
X3079241Y-247650D01*
X3089656Y-247650D01*
X3105150Y-242570D01*
X3115563Y-232155D01*
X3120643Y-216662D01*
X3120643Y-138684D01*
X3165347Y-138684D02*
G01*
X3222497Y-138684D01*
X3191509Y-180339D01*
X3207004Y-180339D01*
X3217418Y-185420D01*
X3222497Y-190500D01*
X3227831Y-206247D01*
X3227831Y-216662D01*
X3222497Y-232155D01*
X3212084Y-242570D01*
X3196590Y-247650D01*
X3181095Y-247650D01*
X3165347Y-242570D01*
X3160268Y-237489D01*
X3154934Y-227076D01*
X2222500Y-138684D02*
G01*
X2222500Y-216662D01*
X2227579Y-232155D01*
X2237993Y-242570D01*
X2253741Y-247650D01*
X2264156Y-247650D01*
X2279650Y-242570D01*
X2290063Y-232155D01*
X2295143Y-216662D01*
X2295143Y-138684D01*
X2381504Y-138684D02*
G01*
X2329434Y-211328D01*
X2407411Y-211328D01*
X2381504Y-138684D02*
G01*
X2381504Y-247650D01*
X1460500Y-125984D02*
G01*
X1460500Y-203962D01*
X1465579Y-219455D01*
X1475994Y-229870D01*
X1491742Y-234950D01*
X1502155Y-234950D01*
X1517650Y-229870D01*
X1528063Y-219455D01*
X1533144Y-203962D01*
X1533144Y-125984D01*
X1629918Y-125984D02*
G01*
X1577847Y-125984D01*
X1572768Y-172720D01*
X1577847Y-167639D01*
X1593595Y-162305D01*
X1609089Y-162305D01*
X1624584Y-167639D01*
X1634997Y-177800D01*
X1640331Y-193547D01*
X1640331Y-203962D01*
X1634997Y-219455D01*
X1624584Y-229870D01*
X1609089Y-234950D01*
X1593595Y-234950D01*
X1577847Y-229870D01*
X1572768Y-224789D01*
X1567434Y-214376D01*
X953515Y-749300D02*
G01*
X875537Y-749300D01*
X860044Y-754379D01*
X849629Y-764794D01*
X844550Y-780542D01*
X844550Y-790955D01*
X849629Y-806450D01*
X860044Y-816863D01*
X875537Y-821944D01*
X953515Y-821944D01*
X938021Y-918718D02*
G01*
X948436Y-913384D01*
X953515Y-897889D01*
X953515Y-887476D01*
X948436Y-871981D01*
X932687Y-861568D01*
X906779Y-856234D01*
X880871Y-856234D01*
X860044Y-861568D01*
X849629Y-871981D01*
X844550Y-887476D01*
X844550Y-892810D01*
X849629Y-908304D01*
X860044Y-918718D01*
X875537Y-923797D01*
X880871Y-923797D01*
X896365Y-918718D01*
X906779Y-908304D01*
X911860Y-892810D01*
X911860Y-887476D01*
X906779Y-871981D01*
X896365Y-861568D01*
X880871Y-856234D01*
D13*
X869856Y-4560699D02*
G01*
X869856Y-4630699D01*
X1009799Y-4630699D01*
X1009799Y-4560699D01*
X1239799Y-4630699D02*
G01*
X1119799Y-4630699D01*
X1119799Y-4560699D01*
X639800Y-4630699D02*
G01*
X759800Y-4630699D01*
X759800Y-4560699D01*
X1119799Y-4560699D01*
X1239799Y-4115701D02*
G01*
X1239799Y-4630699D01*
X639800Y-4115701D02*
G01*
X639800Y-4630699D01*
X639800Y-4115701D02*
G01*
X1239799Y-4115701D01*
X1809656Y-4547999D02*
G01*
X1809656Y-4617999D01*
X1949599Y-4617999D01*
X1949599Y-4547999D01*
X2179599Y-4617999D02*
G01*
X2059599Y-4617999D01*
X2059599Y-4547999D01*
X1579600Y-4617999D02*
G01*
X1699600Y-4617999D01*
X1699600Y-4547999D01*
X2059599Y-4547999D01*
X2179599Y-4103001D02*
G01*
X2179599Y-4617999D01*
X1579600Y-4103001D02*
G01*
X1579600Y-4617999D01*
X1579600Y-4103001D02*
G01*
X2179599Y-4103001D01*
X4851400Y-4064000D02*
G01*
X4851400Y-508000D01*
X6629400Y-508000D01*
X6629400Y-4064000D01*
X4851400Y-4064000D01*
D14*
X2527259Y-3644839D02*
G01*
X2590759Y-3581339D01*
X2654259Y-3644839D01*
X368274Y-3390851D02*
G01*
X304774Y-3454351D01*
X304774Y-3581351D01*
X368274Y-3644851D01*
X622274Y-3390851D02*
G01*
X558774Y-3454351D01*
X495274Y-3390851D01*
X876274Y-3390851D02*
G01*
X812774Y-3454351D01*
X749274Y-3390851D01*
X1130228Y-3390851D02*
G01*
X1066751Y-3454351D01*
X1003251Y-3390851D01*
X1384223Y-3390851D02*
G01*
X1320723Y-3454351D01*
X1257223Y-3390851D01*
X1638223Y-3390851D02*
G01*
X1574723Y-3454351D01*
X1511223Y-3390851D01*
X1892223Y-3390851D02*
G01*
X1828723Y-3454351D01*
X1765223Y-3390851D01*
X2146223Y-3390851D02*
G01*
X2082723Y-3454351D01*
X2019223Y-3390851D01*
X2400223Y-3390851D02*
G01*
X2336723Y-3454351D01*
X2273223Y-3390851D01*
X2654223Y-3390851D02*
G01*
X2590723Y-3454351D01*
X2527223Y-3390851D01*
X2908223Y-3390851D02*
G01*
X2844723Y-3454351D01*
X2781223Y-3390851D01*
X3162223Y-3390851D02*
G01*
X3098723Y-3454351D01*
X3035223Y-3390851D01*
X3416251Y-3390851D02*
G01*
X3352728Y-3454351D01*
X3289223Y-3390851D01*
X3670259Y-3390851D02*
G01*
X3606759Y-3454351D01*
X3543259Y-3390851D01*
X3924259Y-3390851D02*
G01*
X3860759Y-3454351D01*
X3797259Y-3390851D01*
X4051259Y-3644851D02*
G01*
X4114759Y-3581351D01*
X4114759Y-3454351D01*
X4051259Y-3390851D01*
X3797259Y-3644851D02*
G01*
X3860759Y-3581351D01*
X3924259Y-3644851D01*
X3543259Y-3644851D02*
G01*
X3606759Y-3581351D01*
X3670259Y-3644851D01*
X3289223Y-3644851D02*
G01*
X3352728Y-3581351D01*
X3416251Y-3644851D01*
X1003251Y-3644851D02*
G01*
X1066751Y-3581351D01*
X1130228Y-3644851D01*
X495274Y-3644851D02*
G01*
X558774Y-3581351D01*
X622274Y-3644851D01*
X749274Y-3644851D02*
G01*
X812774Y-3581351D01*
X876274Y-3644851D01*
X1257223Y-3644851D02*
G01*
X1320723Y-3581351D01*
X1384223Y-3644851D01*
X1511223Y-3644851D02*
G01*
X1574723Y-3581351D01*
X1638223Y-3644851D01*
X1765223Y-3644851D02*
G01*
X1828723Y-3581351D01*
X1892223Y-3644851D01*
X2019223Y-3644851D02*
G01*
X2082723Y-3581351D01*
X2146223Y-3644851D01*
X2273223Y-3644851D02*
G01*
X2336723Y-3581351D01*
X2400223Y-3644851D01*
X2781223Y-3644851D02*
G01*
X2844723Y-3581351D01*
X2908223Y-3644851D01*
X3035223Y-3644851D02*
G01*
X3098723Y-3581351D01*
X3162223Y-3644851D01*
X3289223Y-3644851D02*
G01*
X3352728Y-3581351D01*
X3416251Y-3644851D01*
X3543259Y-3644851D01*
X3606759Y-3581351D01*
X3670259Y-3644851D01*
X3797259Y-3644851D01*
X3860759Y-3581351D01*
X3924259Y-3644851D01*
X4051259Y-3644851D01*
X4114759Y-3581351D01*
X4114759Y-3454351D01*
X4051259Y-3390851D01*
X3924259Y-3390851D01*
X3860759Y-3454351D01*
X3797259Y-3390851D01*
X3670259Y-3390851D01*
X3606759Y-3454351D01*
X3543259Y-3390851D01*
X3416251Y-3390851D01*
X3352728Y-3454351D01*
X3289223Y-3390851D01*
X3162223Y-3390851D01*
X3098723Y-3454351D01*
X3035223Y-3390851D01*
X2908223Y-3390851D01*
X2844723Y-3454351D01*
X2781223Y-3390851D01*
X2654223Y-3390851D01*
X2590723Y-3454351D01*
X2527223Y-3390851D01*
X2400223Y-3390851D01*
X2336723Y-3454351D01*
X2273223Y-3390851D01*
X2146223Y-3390851D01*
X2082723Y-3454351D01*
X2019223Y-3390851D01*
X1892223Y-3390851D01*
X1828723Y-3454351D01*
X1765223Y-3390851D01*
X1638223Y-3390851D01*
X1574723Y-3454351D01*
X1511223Y-3390851D01*
X1384223Y-3390851D01*
X1320723Y-3454351D01*
X1257223Y-3390851D01*
X1130228Y-3390851D01*
X1066751Y-3454351D01*
X1003251Y-3390851D01*
X876274Y-3390851D01*
X812774Y-3454351D01*
X749274Y-3390851D01*
X622274Y-3390851D01*
X558774Y-3454351D01*
X495274Y-3390851D01*
X368274Y-3390851D01*
X304774Y-3454351D01*
X304774Y-3581351D01*
X368274Y-3644851D01*
X1892325Y-1866943D02*
G01*
X1828825Y-1930443D01*
X1765325Y-1866943D01*
X1130366Y-1866933D02*
G01*
X1066863Y-1930433D01*
X1003338Y-1866933D01*
X876325Y-1866933D01*
X812825Y-1930433D01*
X749325Y-1866933D01*
X622325Y-1866933D01*
X558825Y-1930433D01*
X495325Y-1866933D01*
X368325Y-1866933D01*
X304825Y-1930433D01*
X304825Y-2057433D01*
X368325Y-2120933D01*
X495325Y-2120933D01*
X558825Y-2057433D01*
X622325Y-2120933D01*
X749325Y-2120933D01*
X812825Y-2057433D01*
X876325Y-2120933D01*
X1003338Y-2120933D01*
X1066863Y-2057433D01*
X1130366Y-2120933D01*
X1257366Y-2120933D01*
X1320866Y-2057433D01*
X1384366Y-2120933D01*
X1511366Y-2120933D01*
X1574866Y-2057433D01*
X1638366Y-2120933D01*
X1765366Y-2120933D01*
X1828866Y-2057433D01*
X1892366Y-2120933D01*
X2019366Y-2120933D01*
X2082866Y-2057433D01*
X2146366Y-2120933D01*
X2273366Y-2120933D01*
X2336866Y-2057433D01*
X2400366Y-2120933D01*
X2527366Y-2120933D01*
X2590866Y-2057433D01*
X2654366Y-2120933D01*
X2781366Y-2120933D01*
X2844866Y-2057433D01*
X2908366Y-2120933D01*
X3035366Y-2120933D01*
X3098866Y-2057433D01*
X3162366Y-2120933D01*
X3289360Y-2120933D01*
X3352838Y-2057433D01*
X3416338Y-2120933D01*
X3543315Y-2120933D01*
X3606815Y-2057433D01*
X3670315Y-2120933D01*
X3797315Y-2120933D01*
X3860815Y-2057433D01*
X3924315Y-2120933D01*
X4051315Y-2120933D01*
X4114815Y-2057433D01*
X4114815Y-1930433D01*
X4051315Y-1866933D01*
X3416338Y-1866933D02*
G01*
X3352838Y-1930433D01*
X3289360Y-1866933D01*
X3924315Y-1866933D02*
G01*
X3860815Y-1930433D01*
X3797315Y-1866933D01*
X3670315Y-1866933D02*
G01*
X3606815Y-1930433D01*
X3543315Y-1866933D01*
X3162366Y-1866933D02*
G01*
X3098866Y-1930433D01*
X3035366Y-1866933D01*
X2908366Y-1866933D02*
G01*
X2844866Y-1930433D01*
X2781366Y-1866933D01*
X2654366Y-1866933D02*
G01*
X2590866Y-1930433D01*
X2527366Y-1866933D01*
X2400366Y-1866933D02*
G01*
X2336866Y-1930433D01*
X2273366Y-1866933D01*
X2146366Y-1866933D02*
G01*
X2082866Y-1930433D01*
X2019366Y-1866933D01*
X1638366Y-1866933D02*
G01*
X1574866Y-1930433D01*
X1511366Y-1866933D01*
X1384366Y-1866933D02*
G01*
X1320866Y-1930433D01*
X1257366Y-1866933D01*
X439420Y-2476500D02*
G01*
X439420Y-2501889D01*
X50800Y-2476500D02*
G01*
X-101600Y-2476500D01*
X-101600Y-3035300D01*
X439420Y-3035300D01*
X439420Y-3014395D01*
X50800Y-2476500D02*
G01*
X439420Y-2476500D01*
X439420Y-2501889D02*
G01*
X439420Y-3009900D01*
D10*
X43179Y-1859282D02*
G01*
X4376412Y-1859282D01*
X4376412Y-3652520D01*
X43179Y-3652520D01*
X43179Y-1859282D01*
D13*
X3695700Y-266700D02*
G01*
X4203700Y-266700D01*
X4203700Y-1282700D01*
X3695700Y-1282700D01*
X3695700Y-266700D01*
X2794000Y-279400D02*
G01*
X3302000Y-279400D01*
X3302000Y-1295400D01*
X2794000Y-1295400D01*
X2794000Y-279400D01*
X1968500Y-279400D02*
G01*
X2476500Y-279400D01*
X2476500Y-1295400D01*
X1968500Y-1295400D01*
X1968500Y-279400D01*
X1206500Y-266700D02*
G01*
X1714500Y-266700D01*
X1714500Y-1282700D01*
X1206500Y-1282700D01*
X1206500Y-266700D01*
D11*
X812800Y-1282700D02*
G01*
X558800Y-1282700D01*
X558800Y-266700D01*
X812800Y-266700D01*
X812800Y-457200D01*
D15*
X812800Y-1282700D02*
G01*
X812800Y-457200D01*
M02*
