G04 Layer: TopSolderMaskLayer*
G04 EasyEDA v6.5.57, 2026-08-10 04:38:33*
G04 091fce1478774fbf8b481b73ce7482bd,8ff43565fac74a2282a7672486ee48ce,10*
G04 Gerber Generator version 0.2*
G04 Scale: 100 percent, Rotated: No, Reflected: No *
G04 Dimensions in millimeters *
G04 leading zeros omitted , absolute positions ,4 integer and 5 decimal *
%FSLAX45Y45*%
%MOMM*%

%AMMACRO1*4,1,8,-0.621,-0.6507,-0.6507,-0.6208,-0.6507,0.621,-0.621,0.6507,0.6208,0.6507,0.6507,0.621,0.6507,-0.6208,0.6208,-0.6507,-0.621,-0.6507,0*%
%AMMACRO2*4,1,8,-1.3122,-2.0066,-1.3716,-1.9469,-1.3716,1.9472,-1.3122,2.0066,1.3119,2.0066,1.3716,1.9472,1.3716,-1.9469,1.3119,-2.0066,-1.3122,-2.0066,0*%
%AMMACRO3*4,1,8,-0.8212,-0.8509,-0.8509,-0.8209,-0.8509,0.8212,-0.8212,0.8509,0.8209,0.8509,0.8509,0.8212,0.8509,-0.8209,0.8209,-0.8509,-0.8212,-0.8509,0*%
%AMMACRO4*4,1,8,-0.8085,-0.8382,-0.8382,-0.8082,-0.8382,0.8085,-0.8085,0.8382,0.8082,0.8382,0.8382,0.8085,0.8382,-0.8082,0.8082,-0.8382,-0.8085,-0.8382,0*%
%ADD10MACRO1*%
%ADD11C,1.3016*%
%ADD12MACRO2*%
%ADD13MACRO3*%
%ADD14C,1.7016*%
%ADD15C,1.6256*%
%ADD16MACRO4*%
%ADD17C,0.0164*%
%ADD18C,1.6764*%

%LPD*%
D10*
G01*
X839800Y-4330700D03*
D11*
G01*
X1039799Y-4330700D03*
D10*
G01*
X1779600Y-4318000D03*
D11*
G01*
X1979599Y-4318000D03*
D12*
G01*
X5359400Y-3810000D03*
G01*
X6121400Y-3810000D03*
G01*
X5359400Y-762000D03*
G01*
X6121400Y-762000D03*
D13*
G01*
X3987800Y-1993900D03*
D14*
G01*
X3733800Y-3517900D03*
G01*
X3225800Y-3517900D03*
G01*
X2717800Y-3517900D03*
G01*
X2209800Y-3517900D03*
G01*
X1701800Y-3517900D03*
G01*
X1193800Y-3517900D03*
G01*
X685800Y-3517900D03*
G01*
X431800Y-1993900D03*
G01*
X939800Y-1993900D03*
G01*
X1447800Y-1993900D03*
G01*
X1955800Y-1993900D03*
G01*
X2463800Y-1993900D03*
G01*
X2971800Y-1993900D03*
G01*
X3479800Y-1993900D03*
G01*
X3733800Y-1993900D03*
G01*
X3225800Y-1993900D03*
G01*
X2717800Y-1993900D03*
G01*
X2209800Y-1993900D03*
G01*
X1701800Y-1993900D03*
G01*
X1193800Y-1993900D03*
G01*
X685800Y-1993900D03*
G01*
X431800Y-3517900D03*
G01*
X939800Y-3517900D03*
G01*
X1447800Y-3517900D03*
G01*
X1955800Y-3517900D03*
G01*
X2463800Y-3517900D03*
G01*
X2971800Y-3517900D03*
G01*
X3479800Y-3517900D03*
D13*
G01*
X3987800Y-3517900D03*
D15*
G01*
X3949700Y-520700D03*
G01*
X3949700Y-774700D03*
G01*
X3949700Y-1028700D03*
G01*
X3048000Y-533400D03*
G01*
X3048000Y-787400D03*
G01*
X3048000Y-1041400D03*
G01*
X2222500Y-533400D03*
G01*
X2222500Y-787400D03*
G01*
X2222500Y-1041400D03*
G01*
X1460500Y-520700D03*
G01*
X1460500Y-774700D03*
G01*
X1460500Y-1028700D03*
D16*
G01*
X685800Y-393700D03*
D18*
G01*
X685800Y-647700D03*
G01*
X685800Y-901700D03*
G01*
X685800Y-1155700D03*
M02*
