G04 Layer: TopLayer*
G04 EasyEDA v6.5.57, 2026-08-10 04:38:33*
G04 091fce1478774fbf8b481b73ce7482bd,8ff43565fac74a2282a7672486ee48ce,10*
G04 Gerber Generator version 0.2*
G04 Scale: 100 percent, Rotated: No, Reflected: No *
G04 Dimensions in millimeters *
G04 leading zeros omitted , absolute positions ,4 integer and 5 decimal *
%FSLAX45Y45*%
%MOMM*%

%ADD10C,0.3800*%
%ADD11C,0.2540*%
%ADD12R,1.2000X1.2000*%
%ADD13C,1.2000*%
%ADD14R,2.5400X3.8100*%
%ADD15R,1.6000X1.6000*%
%ADD16C,1.6000*%
%ADD17C,0.0146*%
%ADD18C,1.5240*%
%ADD19R,1.5748X1.5748*%
%ADD20C,1.5748*%

%LPD*%
G36*
X3327349Y-4812792D02*
G01*
X73812Y-4787646D01*
X69951Y-4786884D01*
X66700Y-4784699D01*
X64516Y-4781448D01*
X63703Y-4777587D01*
X26212Y-36220D01*
X26924Y-32308D01*
X29159Y-28956D01*
X32461Y-26771D01*
X36372Y-25958D01*
X6859930Y-38557D01*
X6863842Y-39319D01*
X6867144Y-41554D01*
X6869328Y-44856D01*
X6870090Y-48717D01*
X6857593Y-4777536D01*
X6856831Y-4781397D01*
X6854647Y-4784648D01*
X6851345Y-4786833D01*
X6847484Y-4787646D01*
G37*

%LPC*%
G36*
X1791207Y-4699508D02*
G01*
X2577592Y-4699508D01*
X2585618Y-4698695D01*
X2592832Y-4696510D01*
X2599537Y-4692954D01*
X2605735Y-4687824D01*
X3137204Y-4156405D01*
X3140506Y-4154170D01*
X3144418Y-4153408D01*
X4152392Y-4153408D01*
X4160418Y-4152595D01*
X4167632Y-4150410D01*
X4174337Y-4146854D01*
X4180535Y-4141724D01*
X4649724Y-3672535D01*
X4654854Y-3666337D01*
X4658410Y-3659632D01*
X4660595Y-3652418D01*
X4661408Y-3644392D01*
X4661408Y-3299968D01*
X4662170Y-3296056D01*
X4664405Y-3292805D01*
X4667656Y-3290570D01*
X4671568Y-3289808D01*
X6072632Y-3289808D01*
X6076543Y-3290570D01*
X6079794Y-3292805D01*
X6082030Y-3296056D01*
X6082792Y-3299968D01*
X6082792Y-3583432D01*
X6082030Y-3587343D01*
X6079794Y-3590594D01*
X6076543Y-3592829D01*
X6072632Y-3593592D01*
X5994958Y-3593592D01*
X5988659Y-3594303D01*
X5983173Y-3596233D01*
X5978296Y-3599281D01*
X5974181Y-3603396D01*
X5971133Y-3608273D01*
X5969203Y-3613759D01*
X5968492Y-3620058D01*
X5968492Y-3999941D01*
X5969203Y-4006240D01*
X5971133Y-4011726D01*
X5974181Y-4016603D01*
X5978296Y-4020718D01*
X5983173Y-4023766D01*
X5988659Y-4025696D01*
X5994958Y-4026408D01*
X6247841Y-4026408D01*
X6254140Y-4025696D01*
X6259626Y-4023766D01*
X6264503Y-4020718D01*
X6268618Y-4016603D01*
X6271666Y-4011726D01*
X6273596Y-4006240D01*
X6274308Y-3999941D01*
X6274308Y-3620058D01*
X6273596Y-3613759D01*
X6271666Y-3608273D01*
X6268618Y-3603396D01*
X6264503Y-3599281D01*
X6259626Y-3596233D01*
X6254140Y-3594303D01*
X6247841Y-3593592D01*
X6170168Y-3593592D01*
X6166256Y-3592829D01*
X6163005Y-3590594D01*
X6160770Y-3587343D01*
X6160008Y-3583432D01*
X6160008Y-3251708D01*
X6159195Y-3243681D01*
X6157010Y-3236468D01*
X6153454Y-3229762D01*
X6148679Y-3223920D01*
X6142837Y-3219145D01*
X6136132Y-3215589D01*
X6128918Y-3213404D01*
X6120892Y-3212592D01*
X4623308Y-3212592D01*
X4615281Y-3213404D01*
X4608068Y-3215589D01*
X4601362Y-3219145D01*
X4595520Y-3223920D01*
X4590745Y-3229762D01*
X4587189Y-3236468D01*
X4585004Y-3243681D01*
X4584192Y-3251708D01*
X4584192Y-3624681D01*
X4583430Y-3628593D01*
X4581194Y-3631895D01*
X4139895Y-4073194D01*
X4136593Y-4075429D01*
X4132681Y-4076192D01*
X3124708Y-4076192D01*
X3116681Y-4077004D01*
X3109468Y-4079189D01*
X3102762Y-4082745D01*
X3096564Y-4087876D01*
X2565095Y-4619294D01*
X2561793Y-4621530D01*
X2557881Y-4622292D01*
X1828393Y-4622292D01*
X1824482Y-4621530D01*
X1821180Y-4619294D01*
X1818995Y-4616043D01*
X1818233Y-4612132D01*
X1818233Y-4414062D01*
X1818995Y-4410202D01*
X1821180Y-4406900D01*
X1824482Y-4404664D01*
X1828393Y-4403902D01*
X1839010Y-4403902D01*
X1845360Y-4403191D01*
X1850796Y-4401261D01*
X1855724Y-4398213D01*
X1859788Y-4394098D01*
X1862886Y-4389221D01*
X1864817Y-4383735D01*
X1865528Y-4377436D01*
X1865528Y-4258564D01*
X1864817Y-4252264D01*
X1862886Y-4246778D01*
X1859788Y-4241901D01*
X1855724Y-4237786D01*
X1850796Y-4234738D01*
X1845360Y-4232808D01*
X1839010Y-4232097D01*
X1720189Y-4232097D01*
X1713839Y-4232808D01*
X1708404Y-4234738D01*
X1703476Y-4237786D01*
X1699412Y-4241901D01*
X1696313Y-4246778D01*
X1694383Y-4252264D01*
X1693672Y-4258564D01*
X1693672Y-4377436D01*
X1694383Y-4383735D01*
X1696313Y-4389221D01*
X1699412Y-4394098D01*
X1703476Y-4398213D01*
X1708404Y-4401261D01*
X1713839Y-4403191D01*
X1720189Y-4403902D01*
X1730857Y-4403902D01*
X1734718Y-4404664D01*
X1738020Y-4406900D01*
X1740204Y-4410202D01*
X1741017Y-4414062D01*
X1741017Y-4649317D01*
X1741779Y-4657344D01*
X1743964Y-4664557D01*
X1747520Y-4671212D01*
X1752650Y-4677460D01*
X1763064Y-4687824D01*
X1769262Y-4692954D01*
X1775968Y-4696510D01*
X1783181Y-4698695D01*
G37*
G36*
X780389Y-4416602D02*
G01*
X899210Y-4416602D01*
X905560Y-4415891D01*
X910996Y-4413961D01*
X915924Y-4410913D01*
X919987Y-4406798D01*
X923086Y-4401921D01*
X925017Y-4396435D01*
X925728Y-4390136D01*
X925728Y-4271264D01*
X925017Y-4264964D01*
X923086Y-4259478D01*
X919987Y-4254601D01*
X915924Y-4250486D01*
X910996Y-4247438D01*
X905560Y-4245508D01*
X899210Y-4244797D01*
X780389Y-4244797D01*
X774039Y-4245508D01*
X768604Y-4247438D01*
X763676Y-4250486D01*
X759612Y-4254601D01*
X756513Y-4259478D01*
X754583Y-4264964D01*
X753872Y-4271264D01*
X753872Y-4390136D01*
X754583Y-4396435D01*
X756513Y-4401921D01*
X759612Y-4406798D01*
X763676Y-4410913D01*
X768604Y-4413961D01*
X774039Y-4415891D01*
G37*
G36*
X1039825Y-4416602D02*
G01*
X1052017Y-4415688D01*
X1064006Y-4413097D01*
X1075486Y-4408830D01*
X1086256Y-4402937D01*
X1096060Y-4395622D01*
X1104696Y-4386935D01*
X1112062Y-4377131D01*
X1117904Y-4366361D01*
X1122222Y-4354880D01*
X1124813Y-4342942D01*
X1125677Y-4330700D01*
X1124813Y-4318457D01*
X1122730Y-4309008D01*
X1122578Y-4305655D01*
X1123543Y-4302404D01*
X1125474Y-4299661D01*
X1141780Y-4283405D01*
X1145082Y-4281170D01*
X1148994Y-4280408D01*
X1371092Y-4280408D01*
X1379118Y-4279595D01*
X1386332Y-4277410D01*
X1393037Y-4273854D01*
X1399235Y-4268724D01*
X1487424Y-4180535D01*
X1492554Y-4174337D01*
X1496110Y-4167632D01*
X1498295Y-4160418D01*
X1499108Y-4152392D01*
X1499108Y-3969918D01*
X1499870Y-3966006D01*
X1502105Y-3962704D01*
X1587804Y-3877005D01*
X1591106Y-3874770D01*
X1595018Y-3874008D01*
X2345791Y-3874008D01*
X2349703Y-3874770D01*
X2353005Y-3877005D01*
X2355189Y-3880307D01*
X2355951Y-3884168D01*
X2355189Y-3888079D01*
X2352954Y-3891381D01*
X2010867Y-4232351D01*
X2008124Y-4234332D01*
X2004923Y-4235246D01*
X2001570Y-4235094D01*
X1991817Y-4233011D01*
X1979625Y-4232097D01*
X1967382Y-4233011D01*
X1955393Y-4235602D01*
X1943912Y-4239869D01*
X1933193Y-4245762D01*
X1923338Y-4253077D01*
X1914702Y-4261764D01*
X1907336Y-4271568D01*
X1901494Y-4282338D01*
X1897176Y-4293819D01*
X1894586Y-4305757D01*
X1893722Y-4318000D01*
X1894586Y-4330242D01*
X1897176Y-4342180D01*
X1901494Y-4353661D01*
X1907336Y-4364431D01*
X1914702Y-4374235D01*
X1923338Y-4382922D01*
X1933193Y-4390237D01*
X1943912Y-4396130D01*
X1955393Y-4400397D01*
X1967382Y-4402988D01*
X1979625Y-4403902D01*
X1991817Y-4402988D01*
X2003806Y-4400397D01*
X2015286Y-4396130D01*
X2026056Y-4390237D01*
X2035860Y-4382922D01*
X2044496Y-4374235D01*
X2051862Y-4364431D01*
X2057704Y-4353661D01*
X2062022Y-4342180D01*
X2064613Y-4330242D01*
X2065477Y-4318000D01*
X2064613Y-4305757D01*
X2062581Y-4296460D01*
X2062429Y-4293108D01*
X2063394Y-4289856D01*
X2065324Y-4287113D01*
X2490724Y-3863086D01*
X2495804Y-3856888D01*
X2499410Y-3850233D01*
X2501595Y-3842969D01*
X2502357Y-3835450D01*
X2501646Y-3827932D01*
X2499461Y-3820718D01*
X2495905Y-3814013D01*
X2491130Y-3808171D01*
X2485288Y-3803396D01*
X2478633Y-3799789D01*
X2471369Y-3797604D01*
X2463292Y-3796792D01*
X1575308Y-3796792D01*
X1567281Y-3797604D01*
X1560068Y-3799789D01*
X1553362Y-3803345D01*
X1547164Y-3808476D01*
X1433576Y-3922064D01*
X1428445Y-3928262D01*
X1424889Y-3934968D01*
X1422704Y-3942181D01*
X1421892Y-3950208D01*
X1421892Y-4132681D01*
X1421130Y-4136593D01*
X1418894Y-4139895D01*
X1358595Y-4200194D01*
X1355293Y-4202430D01*
X1351381Y-4203192D01*
X1129284Y-4203192D01*
X1121257Y-4204004D01*
X1114044Y-4206189D01*
X1107338Y-4209745D01*
X1101140Y-4214876D01*
X1070965Y-4245051D01*
X1068222Y-4246981D01*
X1064971Y-4247946D01*
X1061618Y-4247794D01*
X1052017Y-4245711D01*
X1039825Y-4244797D01*
X1027582Y-4245711D01*
X1015593Y-4248302D01*
X1004112Y-4252569D01*
X993394Y-4258462D01*
X983538Y-4265777D01*
X974902Y-4274464D01*
X967536Y-4284268D01*
X961694Y-4295038D01*
X957376Y-4306519D01*
X954786Y-4318457D01*
X953922Y-4330700D01*
X954786Y-4342942D01*
X957376Y-4354880D01*
X961694Y-4366361D01*
X967536Y-4377131D01*
X974902Y-4386935D01*
X983538Y-4395622D01*
X993394Y-4402937D01*
X1004112Y-4408830D01*
X1015593Y-4413097D01*
X1027582Y-4415688D01*
G37*
G36*
X5232958Y-4026408D02*
G01*
X5485841Y-4026408D01*
X5492140Y-4025696D01*
X5497626Y-4023766D01*
X5502503Y-4020718D01*
X5506618Y-4016603D01*
X5509666Y-4011726D01*
X5511596Y-4006240D01*
X5512308Y-3999941D01*
X5512308Y-3620058D01*
X5511596Y-3613759D01*
X5509666Y-3608273D01*
X5506618Y-3603396D01*
X5502503Y-3599281D01*
X5497626Y-3596233D01*
X5492140Y-3594303D01*
X5485841Y-3593592D01*
X5232958Y-3593592D01*
X5226659Y-3594303D01*
X5221173Y-3596233D01*
X5216296Y-3599281D01*
X5212181Y-3603396D01*
X5209133Y-3608273D01*
X5207203Y-3613759D01*
X5206492Y-3620058D01*
X5206492Y-3999941D01*
X5207203Y-4006240D01*
X5209133Y-4011726D01*
X5212181Y-4016603D01*
X5216296Y-4020718D01*
X5221173Y-4023766D01*
X5226659Y-4025696D01*
G37*
G36*
X1193749Y-3623818D02*
G01*
X1207566Y-3622903D01*
X1221130Y-3620211D01*
X1234287Y-3615791D01*
X1246682Y-3609644D01*
X1258214Y-3601974D01*
X1268628Y-3592829D01*
X1277772Y-3582415D01*
X1285443Y-3570884D01*
X1291590Y-3558489D01*
X1296009Y-3545332D01*
X1298702Y-3531768D01*
X1299616Y-3517950D01*
X1298702Y-3504133D01*
X1296009Y-3490518D01*
X1291590Y-3477412D01*
X1285443Y-3465017D01*
X1277772Y-3453485D01*
X1268628Y-3443071D01*
X1258214Y-3433927D01*
X1246682Y-3426256D01*
X1234287Y-3420110D01*
X1221130Y-3415690D01*
X1207566Y-3412947D01*
X1193749Y-3412083D01*
X1179931Y-3412947D01*
X1166317Y-3415690D01*
X1153210Y-3420110D01*
X1140815Y-3426256D01*
X1129284Y-3433927D01*
X1118870Y-3443071D01*
X1109726Y-3453485D01*
X1102055Y-3465017D01*
X1095908Y-3477412D01*
X1091488Y-3490518D01*
X1088745Y-3504133D01*
X1087882Y-3517950D01*
X1088745Y-3531768D01*
X1091488Y-3545332D01*
X1095908Y-3558489D01*
X1102055Y-3570884D01*
X1109726Y-3582415D01*
X1118870Y-3592829D01*
X1129284Y-3601974D01*
X1140815Y-3609644D01*
X1153210Y-3615791D01*
X1166317Y-3620211D01*
X1179931Y-3622903D01*
G37*
G36*
X685749Y-3623818D02*
G01*
X699566Y-3622903D01*
X713130Y-3620211D01*
X726287Y-3615791D01*
X738682Y-3609644D01*
X750214Y-3601974D01*
X760628Y-3592829D01*
X769772Y-3582415D01*
X777443Y-3570884D01*
X783590Y-3558489D01*
X788009Y-3545332D01*
X790702Y-3531768D01*
X791616Y-3517950D01*
X790702Y-3504133D01*
X788009Y-3490518D01*
X783590Y-3477412D01*
X777443Y-3465017D01*
X769772Y-3453485D01*
X760628Y-3443071D01*
X750214Y-3433927D01*
X738682Y-3426256D01*
X726287Y-3420110D01*
X713130Y-3415690D01*
X699566Y-3412947D01*
X685749Y-3412083D01*
X671931Y-3412947D01*
X658317Y-3415690D01*
X645210Y-3420110D01*
X632815Y-3426256D01*
X621284Y-3433927D01*
X610870Y-3443071D01*
X601726Y-3453485D01*
X594055Y-3465017D01*
X587908Y-3477412D01*
X583488Y-3490518D01*
X580745Y-3504133D01*
X579882Y-3517950D01*
X580745Y-3531768D01*
X583488Y-3545332D01*
X587908Y-3558489D01*
X594055Y-3570884D01*
X601726Y-3582415D01*
X610870Y-3592829D01*
X621284Y-3601974D01*
X632815Y-3609644D01*
X645210Y-3615791D01*
X658317Y-3620211D01*
X671931Y-3622903D01*
G37*
G36*
X1701749Y-3623818D02*
G01*
X1715566Y-3622903D01*
X1729130Y-3620211D01*
X1742287Y-3615791D01*
X1754682Y-3609644D01*
X1766214Y-3601974D01*
X1776628Y-3592829D01*
X1785772Y-3582415D01*
X1793443Y-3570884D01*
X1799589Y-3558489D01*
X1804009Y-3545332D01*
X1806702Y-3531768D01*
X1807616Y-3517950D01*
X1806702Y-3504133D01*
X1804009Y-3490518D01*
X1799589Y-3477412D01*
X1793443Y-3465017D01*
X1785772Y-3453485D01*
X1776628Y-3443071D01*
X1766214Y-3433927D01*
X1754682Y-3426256D01*
X1742287Y-3420110D01*
X1729130Y-3415690D01*
X1715566Y-3412947D01*
X1701749Y-3412083D01*
X1687931Y-3412947D01*
X1674317Y-3415690D01*
X1661210Y-3420110D01*
X1648815Y-3426256D01*
X1637283Y-3433927D01*
X1626870Y-3443071D01*
X1617726Y-3453485D01*
X1610055Y-3465017D01*
X1603908Y-3477412D01*
X1599488Y-3490518D01*
X1596745Y-3504133D01*
X1595882Y-3517950D01*
X1596745Y-3531768D01*
X1599488Y-3545332D01*
X1603908Y-3558489D01*
X1610055Y-3570884D01*
X1617726Y-3582415D01*
X1626870Y-3592829D01*
X1637283Y-3601974D01*
X1648815Y-3609644D01*
X1661210Y-3615791D01*
X1674317Y-3620211D01*
X1687931Y-3622903D01*
G37*
G36*
X2717749Y-3623818D02*
G01*
X2731566Y-3622903D01*
X2745130Y-3620211D01*
X2758287Y-3615791D01*
X2770682Y-3609644D01*
X2782214Y-3601974D01*
X2792628Y-3592829D01*
X2801772Y-3582415D01*
X2809443Y-3570884D01*
X2815590Y-3558489D01*
X2820009Y-3545332D01*
X2822702Y-3531768D01*
X2823616Y-3517950D01*
X2822702Y-3504133D01*
X2820009Y-3490518D01*
X2815590Y-3477412D01*
X2809443Y-3465017D01*
X2801772Y-3453485D01*
X2792628Y-3443071D01*
X2782214Y-3433927D01*
X2770682Y-3426256D01*
X2758287Y-3420110D01*
X2745130Y-3415690D01*
X2731566Y-3412947D01*
X2717749Y-3412083D01*
X2703931Y-3412947D01*
X2690317Y-3415690D01*
X2677210Y-3420110D01*
X2664815Y-3426256D01*
X2653284Y-3433927D01*
X2642870Y-3443071D01*
X2633726Y-3453485D01*
X2626055Y-3465017D01*
X2619908Y-3477412D01*
X2615488Y-3490518D01*
X2612745Y-3504133D01*
X2611882Y-3517950D01*
X2612745Y-3531768D01*
X2615488Y-3545332D01*
X2619908Y-3558489D01*
X2626055Y-3570884D01*
X2633726Y-3582415D01*
X2642870Y-3592829D01*
X2653284Y-3601974D01*
X2664815Y-3609644D01*
X2677210Y-3615791D01*
X2690317Y-3620211D01*
X2703931Y-3622903D01*
G37*
G36*
X2209749Y-3623818D02*
G01*
X2223566Y-3622903D01*
X2237130Y-3620211D01*
X2250287Y-3615791D01*
X2262682Y-3609644D01*
X2274214Y-3601974D01*
X2284628Y-3592829D01*
X2293772Y-3582415D01*
X2301443Y-3570884D01*
X2307590Y-3558489D01*
X2312009Y-3545332D01*
X2314702Y-3531768D01*
X2315616Y-3517950D01*
X2314702Y-3504133D01*
X2312009Y-3490518D01*
X2307590Y-3477412D01*
X2301443Y-3465017D01*
X2293772Y-3453485D01*
X2284628Y-3443071D01*
X2274214Y-3433927D01*
X2262682Y-3426256D01*
X2250287Y-3420110D01*
X2237130Y-3415690D01*
X2223566Y-3412947D01*
X2209749Y-3412083D01*
X2195931Y-3412947D01*
X2182317Y-3415690D01*
X2169210Y-3420110D01*
X2156815Y-3426256D01*
X2145284Y-3433927D01*
X2134870Y-3443071D01*
X2125726Y-3453485D01*
X2118055Y-3465017D01*
X2111908Y-3477412D01*
X2107488Y-3490518D01*
X2104745Y-3504133D01*
X2103882Y-3517950D01*
X2104745Y-3531768D01*
X2107488Y-3545332D01*
X2111908Y-3558489D01*
X2118055Y-3570884D01*
X2125726Y-3582415D01*
X2134870Y-3592829D01*
X2145284Y-3601974D01*
X2156815Y-3609644D01*
X2169210Y-3615791D01*
X2182317Y-3620211D01*
X2195931Y-3622903D01*
G37*
G36*
X3225749Y-3623818D02*
G01*
X3239566Y-3622903D01*
X3253130Y-3620211D01*
X3266287Y-3615791D01*
X3278682Y-3609644D01*
X3290214Y-3601974D01*
X3300628Y-3592829D01*
X3309772Y-3582415D01*
X3317443Y-3570884D01*
X3323590Y-3558489D01*
X3328009Y-3545332D01*
X3330701Y-3531768D01*
X3331616Y-3517950D01*
X3330701Y-3504133D01*
X3328009Y-3490518D01*
X3323590Y-3477412D01*
X3317443Y-3465017D01*
X3309772Y-3453485D01*
X3300628Y-3443071D01*
X3290214Y-3433927D01*
X3278682Y-3426256D01*
X3266287Y-3420110D01*
X3253130Y-3415690D01*
X3239566Y-3412947D01*
X3225749Y-3412083D01*
X3211931Y-3412947D01*
X3198317Y-3415690D01*
X3185210Y-3420110D01*
X3172815Y-3426256D01*
X3161284Y-3433927D01*
X3150870Y-3443071D01*
X3141726Y-3453485D01*
X3134055Y-3465017D01*
X3127908Y-3477412D01*
X3123488Y-3490518D01*
X3120745Y-3504133D01*
X3119882Y-3517950D01*
X3120745Y-3531768D01*
X3123488Y-3545332D01*
X3127908Y-3558489D01*
X3134055Y-3570884D01*
X3141726Y-3582415D01*
X3150870Y-3592829D01*
X3161284Y-3601974D01*
X3172815Y-3609644D01*
X3185210Y-3615791D01*
X3198317Y-3620211D01*
X3211931Y-3622903D01*
G37*
G36*
X3908348Y-3623818D02*
G01*
X4067251Y-3623818D01*
X4073550Y-3623106D01*
X4079036Y-3621176D01*
X4083913Y-3618128D01*
X4088028Y-3614013D01*
X4091076Y-3609136D01*
X4093006Y-3603650D01*
X4093718Y-3597351D01*
X4093718Y-3438448D01*
X4093006Y-3432149D01*
X4091076Y-3426663D01*
X4088028Y-3421786D01*
X4083913Y-3417671D01*
X4079036Y-3414623D01*
X4073550Y-3412693D01*
X4067251Y-3411982D01*
X3908348Y-3411982D01*
X3902049Y-3412693D01*
X3896563Y-3414623D01*
X3891686Y-3417671D01*
X3887571Y-3421786D01*
X3884523Y-3426663D01*
X3882593Y-3432149D01*
X3881882Y-3438448D01*
X3881882Y-3597351D01*
X3882593Y-3603650D01*
X3884523Y-3609136D01*
X3887571Y-3614013D01*
X3891686Y-3618128D01*
X3896563Y-3621176D01*
X3902049Y-3623106D01*
G37*
G36*
X939800Y-3623767D02*
G01*
X953617Y-3622852D01*
X967181Y-3620160D01*
X980338Y-3615740D01*
X992733Y-3609594D01*
X1004265Y-3601923D01*
X1014679Y-3592779D01*
X1023823Y-3582365D01*
X1031494Y-3570833D01*
X1037640Y-3558438D01*
X1042060Y-3545281D01*
X1044752Y-3531717D01*
X1045667Y-3517900D01*
X1044752Y-3504082D01*
X1042060Y-3490468D01*
X1037640Y-3477361D01*
X1031494Y-3464966D01*
X1023823Y-3453434D01*
X1014679Y-3443020D01*
X1004265Y-3433876D01*
X992733Y-3426206D01*
X980338Y-3420059D01*
X967181Y-3415639D01*
X953617Y-3412896D01*
X939800Y-3412032D01*
X925982Y-3412896D01*
X912368Y-3415639D01*
X899261Y-3420059D01*
X886866Y-3426206D01*
X875334Y-3433876D01*
X864920Y-3443020D01*
X855776Y-3453434D01*
X848106Y-3464966D01*
X841959Y-3477361D01*
X837539Y-3490468D01*
X834796Y-3504082D01*
X833932Y-3517900D01*
X834796Y-3531717D01*
X837539Y-3545281D01*
X841959Y-3558438D01*
X848106Y-3570833D01*
X855776Y-3582365D01*
X864920Y-3592779D01*
X875334Y-3601923D01*
X886866Y-3609594D01*
X899261Y-3615740D01*
X912368Y-3620160D01*
X925982Y-3622852D01*
G37*
G36*
X1447800Y-3623767D02*
G01*
X1461617Y-3622852D01*
X1475181Y-3620160D01*
X1488338Y-3615740D01*
X1500733Y-3609594D01*
X1512265Y-3601923D01*
X1522679Y-3592779D01*
X1531823Y-3582365D01*
X1539494Y-3570833D01*
X1545640Y-3558438D01*
X1550060Y-3545281D01*
X1552752Y-3531717D01*
X1553667Y-3517900D01*
X1552752Y-3504082D01*
X1550060Y-3490468D01*
X1545640Y-3477361D01*
X1539494Y-3464966D01*
X1531823Y-3453434D01*
X1522679Y-3443020D01*
X1512265Y-3433876D01*
X1500733Y-3426206D01*
X1488338Y-3420059D01*
X1475181Y-3415639D01*
X1461617Y-3412896D01*
X1447800Y-3412032D01*
X1433982Y-3412896D01*
X1420368Y-3415639D01*
X1407261Y-3420059D01*
X1394866Y-3426206D01*
X1383334Y-3433876D01*
X1372920Y-3443020D01*
X1363776Y-3453434D01*
X1356106Y-3464966D01*
X1349959Y-3477361D01*
X1345539Y-3490468D01*
X1342796Y-3504082D01*
X1341932Y-3517900D01*
X1342796Y-3531717D01*
X1345539Y-3545281D01*
X1349959Y-3558438D01*
X1356106Y-3570833D01*
X1363776Y-3582365D01*
X1372920Y-3592779D01*
X1383334Y-3601923D01*
X1394866Y-3609594D01*
X1407261Y-3615740D01*
X1420368Y-3620160D01*
X1433982Y-3622852D01*
G37*
G36*
X431800Y-3623767D02*
G01*
X445617Y-3622852D01*
X459181Y-3620160D01*
X472338Y-3615740D01*
X484733Y-3609594D01*
X496265Y-3601923D01*
X506679Y-3592779D01*
X515823Y-3582365D01*
X523493Y-3570833D01*
X529640Y-3558438D01*
X534060Y-3545281D01*
X536752Y-3531717D01*
X537667Y-3517900D01*
X536752Y-3504082D01*
X534060Y-3490468D01*
X529640Y-3477361D01*
X523493Y-3464966D01*
X515823Y-3453434D01*
X506679Y-3443020D01*
X496265Y-3433876D01*
X484733Y-3426206D01*
X472338Y-3420059D01*
X459181Y-3415639D01*
X445617Y-3412896D01*
X431800Y-3412032D01*
X417982Y-3412896D01*
X404368Y-3415639D01*
X391261Y-3420059D01*
X378866Y-3426206D01*
X367334Y-3433876D01*
X356920Y-3443020D01*
X347776Y-3453434D01*
X340106Y-3464966D01*
X333959Y-3477361D01*
X329539Y-3490468D01*
X326796Y-3504082D01*
X325932Y-3517900D01*
X326796Y-3531717D01*
X329539Y-3545281D01*
X333959Y-3558438D01*
X340106Y-3570833D01*
X347776Y-3582365D01*
X356920Y-3592779D01*
X367334Y-3601923D01*
X378866Y-3609594D01*
X391261Y-3615740D01*
X404368Y-3620160D01*
X417982Y-3622852D01*
G37*
G36*
X1955800Y-3623767D02*
G01*
X1969617Y-3622852D01*
X1983181Y-3620160D01*
X1996338Y-3615740D01*
X2008733Y-3609594D01*
X2020265Y-3601923D01*
X2030679Y-3592779D01*
X2039823Y-3582365D01*
X2047493Y-3570833D01*
X2053640Y-3558438D01*
X2058060Y-3545281D01*
X2060752Y-3531717D01*
X2061667Y-3517900D01*
X2060752Y-3504082D01*
X2058060Y-3490468D01*
X2053640Y-3477361D01*
X2047493Y-3464966D01*
X2039823Y-3453434D01*
X2030679Y-3443020D01*
X2020265Y-3433876D01*
X2008733Y-3426206D01*
X1996338Y-3420059D01*
X1983181Y-3415639D01*
X1969617Y-3412896D01*
X1955800Y-3412032D01*
X1941982Y-3412896D01*
X1928368Y-3415639D01*
X1915261Y-3420059D01*
X1902866Y-3426206D01*
X1891334Y-3433876D01*
X1880920Y-3443020D01*
X1871776Y-3453434D01*
X1864106Y-3464966D01*
X1857959Y-3477361D01*
X1853539Y-3490468D01*
X1850796Y-3504082D01*
X1849932Y-3517900D01*
X1850796Y-3531717D01*
X1853539Y-3545281D01*
X1857959Y-3558438D01*
X1864106Y-3570833D01*
X1871776Y-3582365D01*
X1880920Y-3592779D01*
X1891334Y-3601923D01*
X1902866Y-3609594D01*
X1915261Y-3615740D01*
X1928368Y-3620160D01*
X1941982Y-3622852D01*
G37*
G36*
X2463800Y-3623767D02*
G01*
X2477617Y-3622852D01*
X2491181Y-3620160D01*
X2504338Y-3615740D01*
X2516733Y-3609594D01*
X2528265Y-3601923D01*
X2538679Y-3592779D01*
X2547823Y-3582365D01*
X2555494Y-3570833D01*
X2561640Y-3558438D01*
X2566060Y-3545281D01*
X2568752Y-3531717D01*
X2569667Y-3517900D01*
X2568752Y-3504082D01*
X2566060Y-3490468D01*
X2561640Y-3477361D01*
X2555494Y-3464966D01*
X2547823Y-3453434D01*
X2538679Y-3443020D01*
X2528265Y-3433876D01*
X2516733Y-3426206D01*
X2504338Y-3420059D01*
X2491181Y-3415639D01*
X2477617Y-3412896D01*
X2463800Y-3412032D01*
X2449982Y-3412896D01*
X2436368Y-3415639D01*
X2423261Y-3420059D01*
X2410866Y-3426206D01*
X2399334Y-3433876D01*
X2388920Y-3443020D01*
X2379776Y-3453434D01*
X2372106Y-3464966D01*
X2365959Y-3477361D01*
X2361539Y-3490468D01*
X2358796Y-3504082D01*
X2357932Y-3517900D01*
X2358796Y-3531717D01*
X2361539Y-3545281D01*
X2365959Y-3558438D01*
X2372106Y-3570833D01*
X2379776Y-3582365D01*
X2388920Y-3592779D01*
X2399334Y-3601923D01*
X2410866Y-3609594D01*
X2423261Y-3615740D01*
X2436368Y-3620160D01*
X2449982Y-3622852D01*
G37*
G36*
X3479800Y-3623767D02*
G01*
X3493617Y-3622852D01*
X3507181Y-3620160D01*
X3520338Y-3615740D01*
X3532733Y-3609594D01*
X3544265Y-3601923D01*
X3554679Y-3592779D01*
X3563772Y-3582365D01*
X3571494Y-3570833D01*
X3577640Y-3558438D01*
X3582060Y-3545281D01*
X3584752Y-3531717D01*
X3585667Y-3517900D01*
X3584752Y-3504082D01*
X3582060Y-3490468D01*
X3577640Y-3477361D01*
X3571494Y-3464966D01*
X3563772Y-3453434D01*
X3554679Y-3443020D01*
X3544265Y-3433876D01*
X3532733Y-3426206D01*
X3520338Y-3420059D01*
X3507181Y-3415639D01*
X3493617Y-3412896D01*
X3479800Y-3412032D01*
X3465982Y-3412896D01*
X3452368Y-3415639D01*
X3439261Y-3420059D01*
X3426866Y-3426206D01*
X3415334Y-3433876D01*
X3404920Y-3443020D01*
X3395776Y-3453434D01*
X3388106Y-3464966D01*
X3381959Y-3477361D01*
X3377539Y-3490468D01*
X3374796Y-3504082D01*
X3373882Y-3517900D01*
X3374796Y-3531717D01*
X3377539Y-3545281D01*
X3381959Y-3558438D01*
X3388106Y-3570833D01*
X3395776Y-3582365D01*
X3404920Y-3592779D01*
X3415334Y-3601923D01*
X3426866Y-3609594D01*
X3439261Y-3615740D01*
X3452368Y-3620160D01*
X3465982Y-3622852D01*
G37*
G36*
X2971800Y-3623767D02*
G01*
X2985617Y-3622852D01*
X2999181Y-3620160D01*
X3012338Y-3615740D01*
X3024733Y-3609594D01*
X3036265Y-3601923D01*
X3046679Y-3592779D01*
X3055823Y-3582365D01*
X3063494Y-3570833D01*
X3069640Y-3558438D01*
X3074060Y-3545281D01*
X3076752Y-3531717D01*
X3077667Y-3517900D01*
X3076752Y-3504082D01*
X3074060Y-3490468D01*
X3069640Y-3477361D01*
X3063494Y-3464966D01*
X3055823Y-3453434D01*
X3046679Y-3443020D01*
X3036265Y-3433876D01*
X3024733Y-3426206D01*
X3012338Y-3420059D01*
X2999181Y-3415639D01*
X2985617Y-3412896D01*
X2971800Y-3412032D01*
X2957982Y-3412896D01*
X2944368Y-3415639D01*
X2931261Y-3420059D01*
X2918866Y-3426206D01*
X2907334Y-3433876D01*
X2896920Y-3443020D01*
X2887776Y-3453434D01*
X2880106Y-3464966D01*
X2873959Y-3477361D01*
X2869539Y-3490468D01*
X2866796Y-3504082D01*
X2865932Y-3517900D01*
X2866796Y-3531717D01*
X2869539Y-3545281D01*
X2873959Y-3558438D01*
X2880106Y-3570833D01*
X2887776Y-3582365D01*
X2896920Y-3592779D01*
X2907334Y-3601923D01*
X2918866Y-3609594D01*
X2931261Y-3615740D01*
X2944368Y-3620160D01*
X2957982Y-3622852D01*
G37*
G36*
X3687470Y-3612845D02*
G01*
X3687470Y-3564229D01*
X3638854Y-3564229D01*
X3642106Y-3570833D01*
X3649776Y-3582365D01*
X3658920Y-3592779D01*
X3669334Y-3601923D01*
X3680866Y-3609594D01*
G37*
G36*
X3780129Y-3612845D02*
G01*
X3786733Y-3609594D01*
X3798265Y-3601923D01*
X3808679Y-3592779D01*
X3817823Y-3582365D01*
X3825494Y-3570833D01*
X3828745Y-3564229D01*
X3780129Y-3564229D01*
G37*
G36*
X3638854Y-3471570D02*
G01*
X3687470Y-3471570D01*
X3687470Y-3422954D01*
X3680866Y-3426206D01*
X3669334Y-3433876D01*
X3658920Y-3443020D01*
X3649776Y-3453434D01*
X3642106Y-3464966D01*
G37*
G36*
X3780129Y-3471570D02*
G01*
X3828745Y-3471570D01*
X3825494Y-3464966D01*
X3817823Y-3453434D01*
X3808679Y-3443020D01*
X3798265Y-3433876D01*
X3786733Y-3426206D01*
X3780129Y-3422954D01*
G37*
G36*
X939850Y-2099818D02*
G01*
X953668Y-2098903D01*
X967232Y-2096211D01*
X980389Y-2091791D01*
X992784Y-2085644D01*
X1004316Y-2077974D01*
X1014730Y-2068830D01*
X1023874Y-2058416D01*
X1031544Y-2046884D01*
X1037691Y-2034489D01*
X1042111Y-2021332D01*
X1044854Y-2007768D01*
X1045718Y-1993950D01*
X1044854Y-1980133D01*
X1042111Y-1966518D01*
X1037691Y-1953412D01*
X1031544Y-1941017D01*
X1023874Y-1929485D01*
X1014730Y-1919071D01*
X1004316Y-1909927D01*
X992784Y-1902256D01*
X980389Y-1896110D01*
X967232Y-1891690D01*
X953668Y-1888947D01*
X939850Y-1888083D01*
X926033Y-1888947D01*
X912469Y-1891690D01*
X899312Y-1896110D01*
X886917Y-1902256D01*
X875385Y-1909927D01*
X864971Y-1919071D01*
X855827Y-1929485D01*
X848156Y-1941017D01*
X842010Y-1953412D01*
X837590Y-1966518D01*
X834847Y-1980133D01*
X833983Y-1993950D01*
X834847Y-2007768D01*
X837590Y-2021332D01*
X842010Y-2034489D01*
X848156Y-2046884D01*
X855827Y-2058416D01*
X864971Y-2068830D01*
X875385Y-2077974D01*
X886917Y-2085644D01*
X899312Y-2091791D01*
X912469Y-2096211D01*
X926033Y-2098903D01*
G37*
G36*
X2463850Y-2099818D02*
G01*
X2477668Y-2098903D01*
X2491282Y-2096211D01*
X2504389Y-2091791D01*
X2516784Y-2085644D01*
X2528316Y-2077974D01*
X2538730Y-2068830D01*
X2547874Y-2058416D01*
X2555544Y-2046884D01*
X2561691Y-2034489D01*
X2566111Y-2021332D01*
X2568854Y-2007768D01*
X2569718Y-1993950D01*
X2568854Y-1980133D01*
X2566111Y-1966518D01*
X2561691Y-1953412D01*
X2555544Y-1941017D01*
X2547874Y-1929485D01*
X2538730Y-1919071D01*
X2528316Y-1909927D01*
X2516784Y-1902256D01*
X2504389Y-1896110D01*
X2491282Y-1891690D01*
X2477668Y-1888947D01*
X2463850Y-1888083D01*
X2450033Y-1888947D01*
X2436469Y-1891690D01*
X2423312Y-1896110D01*
X2410917Y-1902256D01*
X2399385Y-1909927D01*
X2388971Y-1919071D01*
X2379827Y-1929485D01*
X2372156Y-1941017D01*
X2366010Y-1953412D01*
X2361590Y-1966518D01*
X2358898Y-1980133D01*
X2357983Y-1993950D01*
X2358898Y-2007768D01*
X2361590Y-2021332D01*
X2366010Y-2034489D01*
X2372156Y-2046884D01*
X2379827Y-2058416D01*
X2388971Y-2068830D01*
X2399385Y-2077974D01*
X2410917Y-2085644D01*
X2423312Y-2091791D01*
X2436469Y-2096211D01*
X2450033Y-2098903D01*
G37*
G36*
X3479850Y-2099818D02*
G01*
X3493668Y-2098903D01*
X3507232Y-2096211D01*
X3520389Y-2091791D01*
X3532784Y-2085644D01*
X3544315Y-2077974D01*
X3554729Y-2068830D01*
X3563874Y-2058416D01*
X3571544Y-2046884D01*
X3577691Y-2034489D01*
X3582111Y-2021332D01*
X3584803Y-2007768D01*
X3585718Y-1993950D01*
X3584803Y-1980133D01*
X3582111Y-1966518D01*
X3577691Y-1953412D01*
X3571544Y-1941017D01*
X3563874Y-1929485D01*
X3554729Y-1919071D01*
X3544315Y-1909927D01*
X3532784Y-1902256D01*
X3520389Y-1896110D01*
X3507232Y-1891690D01*
X3493668Y-1888947D01*
X3479850Y-1888083D01*
X3466033Y-1888947D01*
X3452418Y-1891690D01*
X3439312Y-1896110D01*
X3426917Y-1902256D01*
X3415385Y-1909927D01*
X3404971Y-1919071D01*
X3395827Y-1929485D01*
X3388156Y-1941017D01*
X3382010Y-1953412D01*
X3377590Y-1966518D01*
X3374847Y-1980133D01*
X3373983Y-1993950D01*
X3374847Y-2007768D01*
X3377590Y-2021332D01*
X3382010Y-2034489D01*
X3388156Y-2046884D01*
X3395827Y-2058416D01*
X3404971Y-2068830D01*
X3415385Y-2077974D01*
X3426917Y-2085644D01*
X3439312Y-2091791D01*
X3452418Y-2096211D01*
X3466033Y-2098903D01*
G37*
G36*
X2971850Y-2099818D02*
G01*
X2985668Y-2098903D01*
X2999232Y-2096211D01*
X3012389Y-2091791D01*
X3024784Y-2085644D01*
X3036316Y-2077974D01*
X3046730Y-2068830D01*
X3055874Y-2058416D01*
X3063544Y-2046884D01*
X3069691Y-2034489D01*
X3074111Y-2021332D01*
X3076854Y-2007768D01*
X3077718Y-1993950D01*
X3076854Y-1980133D01*
X3074111Y-1966518D01*
X3069691Y-1953412D01*
X3063544Y-1941017D01*
X3055874Y-1929485D01*
X3046730Y-1919071D01*
X3036316Y-1909927D01*
X3024784Y-1902256D01*
X3012389Y-1896110D01*
X2999232Y-1891690D01*
X2985668Y-1888947D01*
X2971850Y-1888083D01*
X2958033Y-1888947D01*
X2944469Y-1891690D01*
X2931312Y-1896110D01*
X2918917Y-1902256D01*
X2907385Y-1909927D01*
X2896971Y-1919071D01*
X2887827Y-1929485D01*
X2880156Y-1941017D01*
X2874010Y-1953412D01*
X2869590Y-1966518D01*
X2866847Y-1980133D01*
X2865983Y-1993950D01*
X2866847Y-2007768D01*
X2869590Y-2021332D01*
X2874010Y-2034489D01*
X2880156Y-2046884D01*
X2887827Y-2058416D01*
X2896971Y-2068830D01*
X2907385Y-2077974D01*
X2918917Y-2085644D01*
X2931312Y-2091791D01*
X2944469Y-2096211D01*
X2958033Y-2098903D01*
G37*
G36*
X3908348Y-2099818D02*
G01*
X4067251Y-2099818D01*
X4073550Y-2099106D01*
X4079036Y-2097176D01*
X4083913Y-2094128D01*
X4088028Y-2090013D01*
X4091076Y-2085136D01*
X4093006Y-2079650D01*
X4093718Y-2073351D01*
X4093718Y-1914448D01*
X4093006Y-1908149D01*
X4091076Y-1902663D01*
X4088028Y-1897786D01*
X4083913Y-1893671D01*
X4079036Y-1890623D01*
X4073550Y-1888693D01*
X4067251Y-1887982D01*
X3908348Y-1887982D01*
X3902049Y-1888693D01*
X3896563Y-1890623D01*
X3891686Y-1893671D01*
X3887571Y-1897786D01*
X3884523Y-1902663D01*
X3882593Y-1908149D01*
X3881882Y-1914448D01*
X3881882Y-2073351D01*
X3882593Y-2079650D01*
X3884523Y-2085136D01*
X3887571Y-2090013D01*
X3891686Y-2094128D01*
X3896563Y-2097176D01*
X3902049Y-2099106D01*
G37*
G36*
X1447850Y-2099818D02*
G01*
X1461668Y-2098903D01*
X1475232Y-2096211D01*
X1488389Y-2091791D01*
X1500784Y-2085644D01*
X1512316Y-2077974D01*
X1522730Y-2068830D01*
X1531874Y-2058416D01*
X1539544Y-2046884D01*
X1545691Y-2034489D01*
X1550111Y-2021332D01*
X1552854Y-2007768D01*
X1553718Y-1993950D01*
X1552854Y-1980133D01*
X1550111Y-1966518D01*
X1547012Y-1957324D01*
X1546453Y-1953615D01*
X1547317Y-1949957D01*
X1549450Y-1946859D01*
X1868424Y-1627835D01*
X1873554Y-1621637D01*
X1877110Y-1614932D01*
X1879295Y-1607718D01*
X1880107Y-1599692D01*
X1880107Y-934618D01*
X1880870Y-930706D01*
X1883105Y-927404D01*
X2178456Y-632053D01*
X2181656Y-629869D01*
X2185466Y-629056D01*
X2189276Y-629767D01*
X2192274Y-630885D01*
X2205532Y-634085D01*
X2219096Y-635406D01*
X2232710Y-634949D01*
X2246172Y-632714D01*
X2259177Y-628650D01*
X2271572Y-622909D01*
X2283053Y-615594D01*
X2293467Y-606806D01*
X2302611Y-596646D01*
X2310333Y-585419D01*
X2316480Y-573278D01*
X2320950Y-560374D01*
X2323693Y-547014D01*
X2324608Y-533400D01*
X2323693Y-519785D01*
X2320950Y-506425D01*
X2316480Y-493522D01*
X2310333Y-481380D01*
X2302611Y-470154D01*
X2293467Y-459993D01*
X2283053Y-451205D01*
X2271572Y-443890D01*
X2259177Y-438150D01*
X2246172Y-434085D01*
X2232710Y-431850D01*
X2219096Y-431393D01*
X2205532Y-432714D01*
X2192274Y-435914D01*
X2179523Y-440791D01*
X2167585Y-447344D01*
X2156612Y-455422D01*
X2146808Y-464921D01*
X2138324Y-475640D01*
X2131364Y-487375D01*
X2126081Y-499922D01*
X2122474Y-513080D01*
X2120646Y-526592D01*
X2120646Y-540207D01*
X2122474Y-553720D01*
X2126335Y-567690D01*
X2126640Y-571246D01*
X2125726Y-574700D01*
X2123694Y-577596D01*
X1814575Y-886764D01*
X1809445Y-892962D01*
X1805889Y-899668D01*
X1803704Y-906881D01*
X1802892Y-914908D01*
X1802892Y-1579981D01*
X1802130Y-1583893D01*
X1799894Y-1587195D01*
X1494790Y-1892300D01*
X1491691Y-1894433D01*
X1488033Y-1895297D01*
X1484325Y-1894738D01*
X1475232Y-1891690D01*
X1461668Y-1888947D01*
X1447850Y-1888083D01*
X1434033Y-1888947D01*
X1420469Y-1891690D01*
X1407312Y-1896110D01*
X1394917Y-1902256D01*
X1383385Y-1909927D01*
X1372971Y-1919071D01*
X1363827Y-1929485D01*
X1356156Y-1941017D01*
X1350010Y-1953412D01*
X1345590Y-1966518D01*
X1342847Y-1980133D01*
X1341983Y-1993950D01*
X1342847Y-2007768D01*
X1345590Y-2021332D01*
X1350010Y-2034489D01*
X1356156Y-2046884D01*
X1363827Y-2058416D01*
X1372971Y-2068830D01*
X1383385Y-2077974D01*
X1394917Y-2085644D01*
X1407312Y-2091791D01*
X1420469Y-2096211D01*
X1434033Y-2098903D01*
G37*
G36*
X1955850Y-2099818D02*
G01*
X1969668Y-2098903D01*
X1983232Y-2096211D01*
X1996389Y-2091791D01*
X2008784Y-2085644D01*
X2020316Y-2077974D01*
X2030730Y-2068830D01*
X2039874Y-2058416D01*
X2047544Y-2046884D01*
X2053691Y-2034489D01*
X2058111Y-2021332D01*
X2060854Y-2007768D01*
X2061718Y-1993950D01*
X2060854Y-1980133D01*
X2058111Y-1966518D01*
X2055012Y-1957324D01*
X2054453Y-1953615D01*
X2055317Y-1949957D01*
X2057450Y-1946859D01*
X2338324Y-1665935D01*
X2343454Y-1659737D01*
X2347010Y-1653032D01*
X2349195Y-1645818D01*
X2350008Y-1637792D01*
X2350008Y-1623568D01*
X2350770Y-1619656D01*
X2353005Y-1616405D01*
X2356256Y-1614170D01*
X2360168Y-1613408D01*
X2729992Y-1613408D01*
X2738018Y-1612595D01*
X2745232Y-1610410D01*
X2751937Y-1606854D01*
X2758135Y-1601724D01*
X2895904Y-1464005D01*
X2899206Y-1461770D01*
X2903118Y-1461008D01*
X3530092Y-1461008D01*
X3538118Y-1460195D01*
X3545332Y-1458010D01*
X3552037Y-1454454D01*
X3557879Y-1449679D01*
X3562654Y-1443837D01*
X3566210Y-1437132D01*
X3568395Y-1429918D01*
X3569208Y-1421892D01*
X3569208Y-569468D01*
X3569970Y-565556D01*
X3572205Y-562305D01*
X3575456Y-560070D01*
X3579368Y-559308D01*
X3848709Y-559308D01*
X3852570Y-560070D01*
X3855872Y-562254D01*
X3865524Y-578459D01*
X3874008Y-589178D01*
X3883812Y-598678D01*
X3894785Y-606755D01*
X3906723Y-613308D01*
X3919474Y-618185D01*
X3932732Y-621385D01*
X3946296Y-622706D01*
X3959910Y-622249D01*
X3973372Y-620014D01*
X3986377Y-615950D01*
X3998772Y-610209D01*
X4010253Y-602894D01*
X4020667Y-594106D01*
X4029811Y-583946D01*
X4037533Y-572719D01*
X4043679Y-560578D01*
X4048150Y-547674D01*
X4050893Y-534314D01*
X4051808Y-520700D01*
X4050893Y-507085D01*
X4048150Y-493725D01*
X4043679Y-480822D01*
X4037533Y-468680D01*
X4029811Y-457454D01*
X4020667Y-447293D01*
X4010253Y-438505D01*
X3998772Y-431190D01*
X3986377Y-425450D01*
X3973372Y-421385D01*
X3959910Y-419150D01*
X3946296Y-418693D01*
X3932732Y-420014D01*
X3919474Y-423214D01*
X3906723Y-428091D01*
X3894785Y-434644D01*
X3883812Y-442722D01*
X3874008Y-452221D01*
X3865524Y-462940D01*
X3855872Y-479145D01*
X3852570Y-481330D01*
X3848709Y-482092D01*
X3531108Y-482092D01*
X3523081Y-482904D01*
X3515868Y-485089D01*
X3509162Y-488645D01*
X3503320Y-493420D01*
X3498545Y-499262D01*
X3494989Y-505968D01*
X3492804Y-513181D01*
X3491992Y-521208D01*
X3491992Y-1373632D01*
X3491229Y-1377543D01*
X3488994Y-1380794D01*
X3485743Y-1383030D01*
X3481832Y-1383792D01*
X2870708Y-1383792D01*
X2862681Y-1384604D01*
X2855468Y-1386789D01*
X2848762Y-1390345D01*
X2842920Y-1395120D01*
X2838145Y-1400962D01*
X2834589Y-1407668D01*
X2831439Y-1418437D01*
X2829458Y-1421282D01*
X2717495Y-1533194D01*
X2714193Y-1535430D01*
X2710281Y-1536192D01*
X2311908Y-1536192D01*
X2303881Y-1537004D01*
X2296668Y-1539189D01*
X2289962Y-1542745D01*
X2284120Y-1547520D01*
X2279345Y-1553362D01*
X2275789Y-1560068D01*
X2273604Y-1567281D01*
X2272792Y-1575308D01*
X2272792Y-1618081D01*
X2272030Y-1621993D01*
X2269794Y-1625295D01*
X2002789Y-1892300D01*
X1999691Y-1894433D01*
X1996033Y-1895297D01*
X1992325Y-1894738D01*
X1983232Y-1891690D01*
X1969668Y-1888947D01*
X1955850Y-1888083D01*
X1942033Y-1888947D01*
X1928469Y-1891690D01*
X1915312Y-1896110D01*
X1902917Y-1902256D01*
X1891385Y-1909927D01*
X1880971Y-1919071D01*
X1871827Y-1929485D01*
X1864156Y-1941017D01*
X1858010Y-1953412D01*
X1853590Y-1966518D01*
X1850847Y-1980133D01*
X1849983Y-1993950D01*
X1850847Y-2007768D01*
X1853590Y-2021332D01*
X1858010Y-2034489D01*
X1864156Y-2046884D01*
X1871827Y-2058416D01*
X1880971Y-2068830D01*
X1891385Y-2077974D01*
X1902917Y-2085644D01*
X1915312Y-2091791D01*
X1928469Y-2096211D01*
X1942033Y-2098903D01*
G37*
G36*
X2717800Y-2099767D02*
G01*
X2731617Y-2098852D01*
X2745181Y-2096160D01*
X2758338Y-2091740D01*
X2770733Y-2085593D01*
X2782265Y-2077923D01*
X2792679Y-2068779D01*
X2801823Y-2058365D01*
X2809494Y-2046833D01*
X2815640Y-2034438D01*
X2820060Y-2021281D01*
X2822803Y-2007717D01*
X2823667Y-1993900D01*
X2822803Y-1980082D01*
X2820060Y-1966468D01*
X2815640Y-1953361D01*
X2809494Y-1940966D01*
X2801823Y-1929434D01*
X2792679Y-1919020D01*
X2782265Y-1909876D01*
X2770733Y-1902206D01*
X2758338Y-1896059D01*
X2745181Y-1891639D01*
X2731617Y-1888896D01*
X2717800Y-1888032D01*
X2703982Y-1888896D01*
X2690418Y-1891639D01*
X2677261Y-1896059D01*
X2664866Y-1902206D01*
X2653334Y-1909876D01*
X2642920Y-1919020D01*
X2633776Y-1929434D01*
X2626106Y-1940966D01*
X2619959Y-1953361D01*
X2615539Y-1966468D01*
X2612796Y-1980082D01*
X2611932Y-1993900D01*
X2612796Y-2007717D01*
X2615539Y-2021281D01*
X2619959Y-2034438D01*
X2626106Y-2046833D01*
X2633776Y-2058365D01*
X2642920Y-2068779D01*
X2653334Y-2077923D01*
X2664866Y-2085593D01*
X2677261Y-2091740D01*
X2690418Y-2096160D01*
X2703982Y-2098852D01*
G37*
G36*
X3733800Y-2099767D02*
G01*
X3747617Y-2098852D01*
X3761181Y-2096160D01*
X3774338Y-2091740D01*
X3786733Y-2085593D01*
X3798265Y-2077923D01*
X3808679Y-2068779D01*
X3817823Y-2058365D01*
X3825494Y-2046833D01*
X3831640Y-2034438D01*
X3836060Y-2021281D01*
X3838803Y-2007717D01*
X3839667Y-1993900D01*
X3838803Y-1980082D01*
X3836060Y-1966468D01*
X3831640Y-1953361D01*
X3825494Y-1940966D01*
X3817823Y-1929434D01*
X3808679Y-1919020D01*
X3798265Y-1909876D01*
X3786733Y-1902206D01*
X3774338Y-1896059D01*
X3761181Y-1891639D01*
X3747617Y-1888896D01*
X3733800Y-1888032D01*
X3719982Y-1888896D01*
X3706418Y-1891639D01*
X3693261Y-1896059D01*
X3680866Y-1902206D01*
X3669334Y-1909876D01*
X3658920Y-1919020D01*
X3649776Y-1929434D01*
X3642106Y-1940966D01*
X3635959Y-1953361D01*
X3631539Y-1966468D01*
X3628796Y-1980082D01*
X3627932Y-1993900D01*
X3628796Y-2007717D01*
X3631539Y-2021281D01*
X3635959Y-2034438D01*
X3642106Y-2046833D01*
X3649776Y-2058365D01*
X3658920Y-2068779D01*
X3669334Y-2077923D01*
X3680866Y-2085593D01*
X3693261Y-2091740D01*
X3706418Y-2096160D01*
X3719982Y-2098852D01*
G37*
G36*
X2209800Y-2099767D02*
G01*
X2223617Y-2098852D01*
X2237232Y-2096160D01*
X2250338Y-2091740D01*
X2262733Y-2085593D01*
X2274265Y-2077923D01*
X2284679Y-2068779D01*
X2293823Y-2058365D01*
X2301494Y-2046833D01*
X2307640Y-2034438D01*
X2312060Y-2021281D01*
X2314803Y-2007717D01*
X2315667Y-1993900D01*
X2314803Y-1980082D01*
X2312060Y-1966468D01*
X2307640Y-1953361D01*
X2301494Y-1940966D01*
X2293823Y-1929434D01*
X2284679Y-1919020D01*
X2274265Y-1909876D01*
X2262733Y-1902206D01*
X2250338Y-1896059D01*
X2237232Y-1891639D01*
X2223617Y-1888896D01*
X2209800Y-1888032D01*
X2195982Y-1888896D01*
X2182418Y-1891639D01*
X2169261Y-1896059D01*
X2156866Y-1902206D01*
X2145334Y-1909876D01*
X2134920Y-1919020D01*
X2125776Y-1929434D01*
X2118106Y-1940966D01*
X2111959Y-1953361D01*
X2107539Y-1966468D01*
X2104847Y-1980082D01*
X2103932Y-1993900D01*
X2104847Y-2007717D01*
X2107539Y-2021281D01*
X2111959Y-2034438D01*
X2118106Y-2046833D01*
X2125776Y-2058365D01*
X2134920Y-2068779D01*
X2145334Y-2077923D01*
X2156866Y-2085593D01*
X2169261Y-2091740D01*
X2182418Y-2096160D01*
X2195982Y-2098852D01*
G37*
G36*
X685800Y-2099767D02*
G01*
X699617Y-2098852D01*
X713232Y-2096160D01*
X726338Y-2091740D01*
X738733Y-2085593D01*
X750265Y-2077923D01*
X760679Y-2068779D01*
X769823Y-2058365D01*
X777494Y-2046833D01*
X783640Y-2034438D01*
X788060Y-2021281D01*
X790803Y-2007717D01*
X791667Y-1993900D01*
X790803Y-1980082D01*
X788060Y-1966468D01*
X783640Y-1953361D01*
X777494Y-1940966D01*
X769823Y-1929434D01*
X760679Y-1919020D01*
X750265Y-1909876D01*
X738733Y-1902206D01*
X726338Y-1896059D01*
X713232Y-1891639D01*
X699617Y-1888896D01*
X685800Y-1888032D01*
X671982Y-1888896D01*
X658418Y-1891639D01*
X649224Y-1894738D01*
X645515Y-1895246D01*
X641858Y-1894382D01*
X638810Y-1892300D01*
X371805Y-1625295D01*
X369570Y-1621993D01*
X368808Y-1618081D01*
X368808Y-1204468D01*
X369570Y-1200556D01*
X371805Y-1197305D01*
X375056Y-1195070D01*
X378968Y-1194308D01*
X582117Y-1194308D01*
X585774Y-1195019D01*
X588975Y-1197000D01*
X591210Y-1199997D01*
X595172Y-1208024D01*
X602792Y-1219403D01*
X611835Y-1229664D01*
X622096Y-1238707D01*
X633476Y-1246327D01*
X645769Y-1252372D01*
X658723Y-1256741D01*
X672134Y-1259433D01*
X685800Y-1260348D01*
X699465Y-1259433D01*
X712876Y-1256741D01*
X725830Y-1252372D01*
X738124Y-1246327D01*
X749503Y-1238707D01*
X759764Y-1229664D01*
X768807Y-1219403D01*
X776427Y-1208024D01*
X782472Y-1195730D01*
X786841Y-1182776D01*
X789533Y-1169365D01*
X790448Y-1155700D01*
X789533Y-1142034D01*
X786841Y-1128623D01*
X782472Y-1115669D01*
X776427Y-1103376D01*
X768807Y-1091996D01*
X759764Y-1081735D01*
X749503Y-1072692D01*
X738124Y-1065072D01*
X725830Y-1059027D01*
X712876Y-1054658D01*
X699465Y-1051966D01*
X685800Y-1051052D01*
X672134Y-1051966D01*
X658723Y-1054658D01*
X645769Y-1059027D01*
X633476Y-1065072D01*
X622096Y-1072692D01*
X611835Y-1081735D01*
X602792Y-1091996D01*
X595172Y-1103376D01*
X591210Y-1111402D01*
X588975Y-1114399D01*
X585774Y-1116380D01*
X582117Y-1117092D01*
X330708Y-1117092D01*
X322681Y-1117904D01*
X315468Y-1120089D01*
X308762Y-1123645D01*
X302920Y-1128420D01*
X298145Y-1134262D01*
X294589Y-1140968D01*
X292404Y-1148181D01*
X291592Y-1156208D01*
X291592Y-1637792D01*
X292404Y-1645818D01*
X294589Y-1653032D01*
X298145Y-1659737D01*
X303276Y-1665935D01*
X584200Y-1946910D01*
X586333Y-1950008D01*
X587146Y-1953615D01*
X586638Y-1957324D01*
X583539Y-1966468D01*
X580847Y-1980082D01*
X579932Y-1993900D01*
X580847Y-2007717D01*
X583539Y-2021281D01*
X587959Y-2034438D01*
X594106Y-2046833D01*
X601776Y-2058365D01*
X610920Y-2068779D01*
X621334Y-2077923D01*
X632866Y-2085593D01*
X645261Y-2091740D01*
X658418Y-2096160D01*
X671982Y-2098852D01*
G37*
G36*
X431800Y-2099767D02*
G01*
X445617Y-2098903D01*
X459181Y-2096160D01*
X472338Y-2091740D01*
X484733Y-2085593D01*
X496265Y-2077923D01*
X506679Y-2068779D01*
X515823Y-2058365D01*
X523493Y-2046833D01*
X529640Y-2034438D01*
X534060Y-2021281D01*
X536803Y-2007717D01*
X537667Y-1993900D01*
X536803Y-1980082D01*
X534060Y-1966518D01*
X529640Y-1953361D01*
X523493Y-1940966D01*
X515823Y-1929434D01*
X506679Y-1919020D01*
X496265Y-1909876D01*
X484733Y-1902206D01*
X472338Y-1896059D01*
X459181Y-1891639D01*
X445617Y-1888896D01*
X431800Y-1888032D01*
X417982Y-1888896D01*
X404418Y-1891639D01*
X395224Y-1894738D01*
X391515Y-1895246D01*
X387908Y-1894382D01*
X384810Y-1892300D01*
X194005Y-1701495D01*
X191770Y-1698193D01*
X191008Y-1694281D01*
X191008Y-950468D01*
X191770Y-946556D01*
X194005Y-943305D01*
X197256Y-941069D01*
X201168Y-940308D01*
X582117Y-940308D01*
X585774Y-941019D01*
X588975Y-943000D01*
X591210Y-945997D01*
X595172Y-954024D01*
X602792Y-965403D01*
X611835Y-975664D01*
X622096Y-984707D01*
X633476Y-992327D01*
X645769Y-998372D01*
X658723Y-1002741D01*
X672134Y-1005433D01*
X685800Y-1006348D01*
X699465Y-1005433D01*
X712876Y-1002741D01*
X725830Y-998372D01*
X738124Y-992327D01*
X749503Y-984707D01*
X759764Y-975664D01*
X768807Y-965403D01*
X776427Y-954024D01*
X782472Y-941730D01*
X786841Y-928776D01*
X789533Y-915365D01*
X790448Y-901700D01*
X789533Y-888034D01*
X786841Y-874623D01*
X782472Y-861669D01*
X776427Y-849376D01*
X768807Y-837996D01*
X759764Y-827735D01*
X749503Y-818692D01*
X738124Y-811072D01*
X725830Y-805027D01*
X712876Y-800658D01*
X699465Y-797966D01*
X685800Y-797052D01*
X672134Y-797966D01*
X658723Y-800658D01*
X645769Y-805027D01*
X633476Y-811072D01*
X622096Y-818692D01*
X611835Y-827735D01*
X602792Y-837996D01*
X595172Y-849376D01*
X591210Y-857402D01*
X588975Y-860399D01*
X585774Y-862380D01*
X582117Y-863092D01*
X152908Y-863092D01*
X144881Y-863904D01*
X137668Y-866089D01*
X130962Y-869645D01*
X125120Y-874420D01*
X120345Y-880262D01*
X116789Y-886968D01*
X114604Y-894181D01*
X113792Y-902208D01*
X113792Y-1713992D01*
X114604Y-1722018D01*
X116789Y-1729232D01*
X120345Y-1735937D01*
X125476Y-1742135D01*
X330200Y-1946910D01*
X332282Y-1950008D01*
X333146Y-1953615D01*
X332638Y-1957324D01*
X329539Y-1966518D01*
X326796Y-1980082D01*
X325932Y-1993900D01*
X326796Y-2007717D01*
X329539Y-2021281D01*
X333959Y-2034438D01*
X340106Y-2046833D01*
X347776Y-2058365D01*
X356920Y-2068779D01*
X367334Y-2077923D01*
X378866Y-2085593D01*
X391261Y-2091740D01*
X404418Y-2096160D01*
X417982Y-2098903D01*
G37*
G36*
X1193800Y-2099767D02*
G01*
X1207617Y-2098852D01*
X1221232Y-2096160D01*
X1234338Y-2091740D01*
X1246733Y-2085593D01*
X1258265Y-2077923D01*
X1268679Y-2068779D01*
X1277823Y-2058365D01*
X1285494Y-2046833D01*
X1291640Y-2034438D01*
X1296060Y-2021281D01*
X1298803Y-2007717D01*
X1299667Y-1993900D01*
X1298803Y-1980082D01*
X1296060Y-1966468D01*
X1291640Y-1953361D01*
X1285494Y-1940966D01*
X1277823Y-1929434D01*
X1268679Y-1919020D01*
X1258265Y-1909876D01*
X1246733Y-1902206D01*
X1234338Y-1896059D01*
X1221232Y-1891639D01*
X1207617Y-1888896D01*
X1193800Y-1888032D01*
X1179982Y-1888896D01*
X1166418Y-1891639D01*
X1157224Y-1894738D01*
X1153515Y-1895246D01*
X1149858Y-1894382D01*
X1146810Y-1892300D01*
X1108405Y-1853895D01*
X1106170Y-1850593D01*
X1105408Y-1846681D01*
X1105408Y-569468D01*
X1106170Y-565556D01*
X1108405Y-562305D01*
X1111656Y-560070D01*
X1115568Y-559308D01*
X1359509Y-559308D01*
X1363370Y-560070D01*
X1366672Y-562254D01*
X1376324Y-578459D01*
X1384808Y-589178D01*
X1394612Y-598678D01*
X1405585Y-606755D01*
X1417523Y-613308D01*
X1430274Y-618185D01*
X1443532Y-621385D01*
X1457096Y-622706D01*
X1470710Y-622249D01*
X1484172Y-620014D01*
X1497177Y-615950D01*
X1509572Y-610209D01*
X1521053Y-602894D01*
X1531467Y-594106D01*
X1540611Y-583946D01*
X1548333Y-572719D01*
X1554480Y-560578D01*
X1558950Y-547674D01*
X1561693Y-534314D01*
X1562608Y-520700D01*
X1561693Y-507085D01*
X1558950Y-493725D01*
X1554480Y-480822D01*
X1548333Y-468680D01*
X1540611Y-457454D01*
X1531467Y-447293D01*
X1521053Y-438505D01*
X1509572Y-431190D01*
X1497177Y-425450D01*
X1484172Y-421385D01*
X1470710Y-419150D01*
X1457096Y-418693D01*
X1443532Y-420014D01*
X1430274Y-423214D01*
X1417523Y-428091D01*
X1405585Y-434644D01*
X1394612Y-442722D01*
X1384808Y-452221D01*
X1376324Y-462940D01*
X1366672Y-479145D01*
X1363370Y-481330D01*
X1359509Y-482092D01*
X1067308Y-482092D01*
X1059281Y-482904D01*
X1052068Y-485089D01*
X1045362Y-488645D01*
X1039520Y-493420D01*
X1034745Y-499262D01*
X1031189Y-505968D01*
X1029004Y-513181D01*
X1028192Y-521208D01*
X1028192Y-1866392D01*
X1029004Y-1874418D01*
X1031189Y-1881632D01*
X1034745Y-1888337D01*
X1039876Y-1894535D01*
X1092200Y-1946910D01*
X1094333Y-1950008D01*
X1095146Y-1953615D01*
X1094638Y-1957324D01*
X1091539Y-1966468D01*
X1088847Y-1980082D01*
X1087932Y-1993900D01*
X1088847Y-2007717D01*
X1091539Y-2021281D01*
X1095959Y-2034438D01*
X1102106Y-2046833D01*
X1109776Y-2058365D01*
X1118920Y-2068779D01*
X1129334Y-2077923D01*
X1140866Y-2085593D01*
X1153261Y-2091740D01*
X1166418Y-2096160D01*
X1179982Y-2098852D01*
G37*
G36*
X1701800Y-2099767D02*
G01*
X1715617Y-2098852D01*
X1729232Y-2096160D01*
X1742338Y-2091740D01*
X1754733Y-2085593D01*
X1766265Y-2077923D01*
X1776679Y-2068779D01*
X1785823Y-2058365D01*
X1793493Y-2046833D01*
X1799640Y-2034438D01*
X1804060Y-2021281D01*
X1806803Y-2007717D01*
X1807667Y-1993900D01*
X1806803Y-1980082D01*
X1804060Y-1966468D01*
X1800961Y-1957324D01*
X1800453Y-1953615D01*
X1801317Y-1949957D01*
X1803400Y-1946910D01*
X2058924Y-1691335D01*
X2064054Y-1685137D01*
X2067610Y-1678432D01*
X2070760Y-1667662D01*
X2072741Y-1664817D01*
X2273604Y-1464005D01*
X2276906Y-1461770D01*
X2280818Y-1461008D01*
X2691892Y-1461008D01*
X2699918Y-1460195D01*
X2707132Y-1458010D01*
X2713837Y-1454454D01*
X2719679Y-1449679D01*
X2724454Y-1443837D01*
X2728010Y-1437132D01*
X2730195Y-1429918D01*
X2731008Y-1421892D01*
X2731008Y-582168D01*
X2731770Y-578256D01*
X2734005Y-575005D01*
X2737256Y-572770D01*
X2741168Y-572008D01*
X2947009Y-572008D01*
X2950870Y-572770D01*
X2954172Y-574954D01*
X2963824Y-591159D01*
X2972308Y-601878D01*
X2982112Y-611378D01*
X2993085Y-619455D01*
X3005023Y-626008D01*
X3017774Y-630885D01*
X3031032Y-634085D01*
X3044596Y-635406D01*
X3058210Y-634949D01*
X3071672Y-632714D01*
X3084677Y-628650D01*
X3097072Y-622909D01*
X3108553Y-615594D01*
X3118967Y-606806D01*
X3128111Y-596646D01*
X3135833Y-585419D01*
X3141980Y-573278D01*
X3146450Y-560374D01*
X3149193Y-547014D01*
X3150108Y-533400D01*
X3149193Y-519785D01*
X3146450Y-506425D01*
X3141980Y-493522D01*
X3135833Y-481380D01*
X3128111Y-470154D01*
X3118967Y-459993D01*
X3108553Y-451205D01*
X3097072Y-443890D01*
X3084677Y-438150D01*
X3071672Y-434085D01*
X3058210Y-431850D01*
X3044596Y-431393D01*
X3031032Y-432714D01*
X3017774Y-435914D01*
X3005023Y-440791D01*
X2993085Y-447344D01*
X2982112Y-455422D01*
X2972308Y-464921D01*
X2963824Y-475640D01*
X2954172Y-491845D01*
X2950870Y-494030D01*
X2947009Y-494792D01*
X2692908Y-494792D01*
X2684881Y-495604D01*
X2677668Y-497789D01*
X2670962Y-501345D01*
X2665120Y-506120D01*
X2660345Y-511962D01*
X2656789Y-518668D01*
X2654604Y-525881D01*
X2653792Y-533908D01*
X2653792Y-1373632D01*
X2653030Y-1377543D01*
X2650794Y-1380794D01*
X2647543Y-1383030D01*
X2643632Y-1383792D01*
X2261108Y-1383792D01*
X2253081Y-1384604D01*
X2245868Y-1386789D01*
X2239162Y-1390345D01*
X2232964Y-1395476D01*
X2005075Y-1623364D01*
X1999945Y-1629562D01*
X1996389Y-1636268D01*
X1993239Y-1647037D01*
X1991258Y-1649882D01*
X1748789Y-1892300D01*
X1745742Y-1894382D01*
X1742084Y-1895246D01*
X1738375Y-1894738D01*
X1729232Y-1891639D01*
X1715617Y-1888896D01*
X1701800Y-1888032D01*
X1687982Y-1888896D01*
X1674418Y-1891639D01*
X1661261Y-1896059D01*
X1648866Y-1902206D01*
X1637334Y-1909876D01*
X1626920Y-1919020D01*
X1617776Y-1929434D01*
X1610106Y-1940966D01*
X1603959Y-1953361D01*
X1599539Y-1966468D01*
X1596847Y-1980082D01*
X1595932Y-1993900D01*
X1596847Y-2007717D01*
X1599539Y-2021281D01*
X1603959Y-2034438D01*
X1610106Y-2046833D01*
X1617776Y-2058365D01*
X1626920Y-2068779D01*
X1637334Y-2077923D01*
X1648866Y-2085593D01*
X1661261Y-2091740D01*
X1674418Y-2096160D01*
X1687982Y-2098852D01*
G37*
G36*
X3179470Y-2088845D02*
G01*
X3179470Y-2040229D01*
X3130854Y-2040229D01*
X3134106Y-2046833D01*
X3141776Y-2058365D01*
X3150920Y-2068779D01*
X3161334Y-2077923D01*
X3172866Y-2085593D01*
G37*
G36*
X3272129Y-2088845D02*
G01*
X3278733Y-2085593D01*
X3290265Y-2077923D01*
X3300679Y-2068779D01*
X3309823Y-2058365D01*
X3317494Y-2046833D01*
X3320745Y-2040229D01*
X3272129Y-2040229D01*
G37*
G36*
X3130854Y-1947570D02*
G01*
X3179470Y-1947570D01*
X3179470Y-1898954D01*
X3172866Y-1902206D01*
X3161334Y-1909876D01*
X3150920Y-1919020D01*
X3141776Y-1929434D01*
X3134106Y-1940966D01*
G37*
G36*
X3272129Y-1947570D02*
G01*
X3320745Y-1947570D01*
X3317494Y-1940966D01*
X3309823Y-1929434D01*
X3300679Y-1919020D01*
X3290265Y-1909876D01*
X3278733Y-1902206D01*
X3272129Y-1898954D01*
G37*
G36*
X3003550Y-1133195D02*
G01*
X3003550Y-1085850D01*
X2956204Y-1085850D01*
X2956864Y-1087424D01*
X2963824Y-1099159D01*
X2972308Y-1109878D01*
X2982112Y-1119378D01*
X2993085Y-1127455D01*
G37*
G36*
X2178050Y-1133195D02*
G01*
X2178050Y-1085850D01*
X2130704Y-1085850D01*
X2131364Y-1087424D01*
X2138324Y-1099159D01*
X2146808Y-1109878D01*
X2156612Y-1119378D01*
X2167585Y-1127455D01*
G37*
G36*
X3092450Y-1133043D02*
G01*
X3097072Y-1130909D01*
X3108553Y-1123594D01*
X3118967Y-1114806D01*
X3128111Y-1104646D01*
X3135833Y-1093419D01*
X3139643Y-1085850D01*
X3092450Y-1085850D01*
G37*
G36*
X2266950Y-1133043D02*
G01*
X2271572Y-1130909D01*
X2283053Y-1123594D01*
X2293467Y-1114806D01*
X2302611Y-1104646D01*
X2310333Y-1093419D01*
X2314143Y-1085850D01*
X2266950Y-1085850D01*
G37*
G36*
X1416050Y-1120495D02*
G01*
X1416050Y-1073150D01*
X1368704Y-1073150D01*
X1369364Y-1074724D01*
X1376324Y-1086459D01*
X1384808Y-1097178D01*
X1394612Y-1106678D01*
X1405585Y-1114755D01*
G37*
G36*
X3905250Y-1120495D02*
G01*
X3905250Y-1073150D01*
X3857904Y-1073150D01*
X3858564Y-1074724D01*
X3865524Y-1086459D01*
X3874008Y-1097178D01*
X3883812Y-1106678D01*
X3894785Y-1114755D01*
G37*
G36*
X3994150Y-1120343D02*
G01*
X3998772Y-1118209D01*
X4010253Y-1110894D01*
X4020667Y-1102106D01*
X4029811Y-1091946D01*
X4037533Y-1080719D01*
X4041343Y-1073150D01*
X3994150Y-1073150D01*
G37*
G36*
X1504950Y-1120343D02*
G01*
X1509572Y-1118209D01*
X1521053Y-1110894D01*
X1531467Y-1102106D01*
X1540611Y-1091946D01*
X1548333Y-1080719D01*
X1552143Y-1073150D01*
X1504950Y-1073150D01*
G37*
G36*
X2266950Y-996950D02*
G01*
X2314143Y-996950D01*
X2310333Y-989380D01*
X2302611Y-978153D01*
X2293467Y-967994D01*
X2283053Y-959205D01*
X2271572Y-951890D01*
X2266950Y-949756D01*
G37*
G36*
X3092450Y-996950D02*
G01*
X3139643Y-996950D01*
X3135833Y-989380D01*
X3128111Y-978153D01*
X3118967Y-967994D01*
X3108553Y-959205D01*
X3097072Y-951890D01*
X3092450Y-949756D01*
G37*
G36*
X2956204Y-996950D02*
G01*
X3003550Y-996950D01*
X3003550Y-949604D01*
X2993085Y-955344D01*
X2982112Y-963421D01*
X2972308Y-972921D01*
X2963824Y-983640D01*
X2956864Y-995375D01*
G37*
G36*
X2130704Y-996950D02*
G01*
X2178050Y-996950D01*
X2178050Y-949604D01*
X2167585Y-955344D01*
X2156612Y-963421D01*
X2146808Y-972921D01*
X2138324Y-983640D01*
X2131364Y-995375D01*
G37*
G36*
X3994150Y-984250D02*
G01*
X4041343Y-984250D01*
X4037533Y-976680D01*
X4029811Y-965453D01*
X4020667Y-955294D01*
X4010253Y-946505D01*
X3998772Y-939190D01*
X3994150Y-937056D01*
G37*
G36*
X1504950Y-984250D02*
G01*
X1552143Y-984250D01*
X1548333Y-976680D01*
X1540611Y-965453D01*
X1531467Y-955294D01*
X1521053Y-946505D01*
X1509572Y-939190D01*
X1504950Y-937056D01*
G37*
G36*
X1368704Y-984250D02*
G01*
X1416050Y-984250D01*
X1416050Y-936904D01*
X1405585Y-942644D01*
X1394612Y-950721D01*
X1384808Y-960221D01*
X1376324Y-970940D01*
X1369364Y-982675D01*
G37*
G36*
X3857904Y-984250D02*
G01*
X3905250Y-984250D01*
X3905250Y-936904D01*
X3894785Y-942644D01*
X3883812Y-950721D01*
X3874008Y-960221D01*
X3865524Y-970940D01*
X3858564Y-982675D01*
G37*
G36*
X5429250Y-978408D02*
G01*
X5485841Y-978408D01*
X5492140Y-977696D01*
X5497626Y-975766D01*
X5502503Y-972718D01*
X5506618Y-968603D01*
X5509666Y-963726D01*
X5511596Y-958240D01*
X5512308Y-951941D01*
X5512308Y-863600D01*
X5429250Y-863600D01*
G37*
G36*
X5232958Y-978408D02*
G01*
X5289550Y-978408D01*
X5289550Y-863600D01*
X5206492Y-863600D01*
X5206492Y-951941D01*
X5207203Y-958240D01*
X5209133Y-963726D01*
X5212181Y-968603D01*
X5216296Y-972718D01*
X5221173Y-975766D01*
X5226659Y-977696D01*
G37*
G36*
X5994958Y-978408D02*
G01*
X6247841Y-978408D01*
X6254140Y-977696D01*
X6259626Y-975766D01*
X6264503Y-972718D01*
X6268618Y-968603D01*
X6271666Y-963726D01*
X6273596Y-958240D01*
X6274308Y-951941D01*
X6274308Y-572058D01*
X6273596Y-565759D01*
X6271666Y-560273D01*
X6268618Y-555396D01*
X6264503Y-551281D01*
X6259626Y-548233D01*
X6254140Y-546303D01*
X6247841Y-545592D01*
X6176467Y-545592D01*
X6172555Y-544830D01*
X6169304Y-542594D01*
X6167069Y-539343D01*
X6166307Y-535432D01*
X6166307Y-266954D01*
X6166104Y-262534D01*
X6165545Y-258470D01*
X6164580Y-254406D01*
X6163259Y-250494D01*
X6161582Y-246684D01*
X6159550Y-243078D01*
X6157214Y-239623D01*
X6154572Y-236474D01*
X6151626Y-233527D01*
X6148476Y-230886D01*
X6145022Y-228549D01*
X6141415Y-226517D01*
X6137605Y-224840D01*
X6133693Y-223520D01*
X6129629Y-222554D01*
X6125565Y-221996D01*
X6121146Y-221792D01*
X4559554Y-221792D01*
X4555134Y-221996D01*
X4551070Y-222554D01*
X4547006Y-223520D01*
X4543094Y-224840D01*
X4539284Y-226517D01*
X4535678Y-228549D01*
X4532223Y-230886D01*
X4529074Y-233527D01*
X4526127Y-236474D01*
X4523486Y-239623D01*
X4521149Y-243078D01*
X4519117Y-246684D01*
X4517440Y-250494D01*
X4516120Y-254406D01*
X4515154Y-258470D01*
X4514596Y-262534D01*
X4514392Y-266954D01*
X4514392Y-681532D01*
X4513630Y-685444D01*
X4511395Y-688695D01*
X4508144Y-690930D01*
X4504232Y-691692D01*
X4011929Y-691692D01*
X4009085Y-691286D01*
X4006443Y-690118D01*
X3998772Y-685190D01*
X3986377Y-679450D01*
X3973372Y-675386D01*
X3959910Y-673150D01*
X3946296Y-672693D01*
X3932732Y-674014D01*
X3919474Y-677214D01*
X3906723Y-682091D01*
X3894785Y-688644D01*
X3883812Y-696722D01*
X3874008Y-706221D01*
X3865524Y-716940D01*
X3858564Y-728675D01*
X3853281Y-741222D01*
X3849674Y-754380D01*
X3847846Y-767892D01*
X3847846Y-781507D01*
X3849674Y-795020D01*
X3853281Y-808177D01*
X3858564Y-820724D01*
X3865524Y-832459D01*
X3874008Y-843178D01*
X3883812Y-852678D01*
X3894785Y-860755D01*
X3906723Y-867308D01*
X3919474Y-872185D01*
X3932732Y-875385D01*
X3946296Y-876706D01*
X3959910Y-876249D01*
X3973372Y-874014D01*
X3986377Y-869950D01*
X3998772Y-864209D01*
X4010253Y-856894D01*
X4020667Y-848106D01*
X4029811Y-837946D01*
X4037533Y-826719D01*
X4043679Y-814578D01*
X4048150Y-801674D01*
X4050588Y-789635D01*
X4051858Y-786434D01*
X4054144Y-783793D01*
X4057142Y-782116D01*
X4060545Y-781507D01*
X4559046Y-781507D01*
X4563465Y-781304D01*
X4567529Y-780745D01*
X4571593Y-779780D01*
X4575505Y-778459D01*
X4579315Y-776782D01*
X4582922Y-774750D01*
X4586376Y-772414D01*
X4589526Y-769772D01*
X4592472Y-766826D01*
X4595114Y-763676D01*
X4597450Y-760222D01*
X4599482Y-756615D01*
X4601159Y-752805D01*
X4602480Y-748893D01*
X4603445Y-744829D01*
X4604004Y-740765D01*
X4604207Y-736346D01*
X4604207Y-321767D01*
X4604969Y-317855D01*
X4607204Y-314604D01*
X4610455Y-312369D01*
X4614367Y-311607D01*
X6066332Y-311607D01*
X6070244Y-312369D01*
X6073495Y-314604D01*
X6075730Y-317855D01*
X6076492Y-321767D01*
X6076492Y-535432D01*
X6075730Y-539343D01*
X6073495Y-542594D01*
X6070244Y-544830D01*
X6066332Y-545592D01*
X5994958Y-545592D01*
X5988659Y-546303D01*
X5983173Y-548233D01*
X5978296Y-551281D01*
X5974181Y-555396D01*
X5971133Y-560273D01*
X5969203Y-565759D01*
X5968492Y-572058D01*
X5968492Y-951941D01*
X5969203Y-958240D01*
X5971133Y-963726D01*
X5974181Y-968603D01*
X5978296Y-972718D01*
X5983173Y-975766D01*
X5988659Y-977696D01*
G37*
G36*
X2219096Y-889406D02*
G01*
X2232710Y-888949D01*
X2246172Y-886714D01*
X2259177Y-882650D01*
X2271572Y-876909D01*
X2283053Y-869594D01*
X2293467Y-860806D01*
X2302611Y-850646D01*
X2310333Y-839419D01*
X2316480Y-827278D01*
X2320950Y-814374D01*
X2323693Y-801014D01*
X2324608Y-787400D01*
X2323693Y-773785D01*
X2320950Y-760425D01*
X2316480Y-747522D01*
X2310333Y-735380D01*
X2302611Y-724154D01*
X2293467Y-713994D01*
X2283053Y-705205D01*
X2271572Y-697890D01*
X2259177Y-692150D01*
X2246172Y-688086D01*
X2232710Y-685850D01*
X2219096Y-685393D01*
X2205532Y-686714D01*
X2192274Y-689914D01*
X2179523Y-694791D01*
X2167585Y-701344D01*
X2156612Y-709422D01*
X2146808Y-718921D01*
X2138324Y-729640D01*
X2131364Y-741375D01*
X2126081Y-753922D01*
X2122474Y-767080D01*
X2120646Y-780592D01*
X2120646Y-794207D01*
X2122474Y-807720D01*
X2126081Y-820877D01*
X2131364Y-833424D01*
X2138324Y-845159D01*
X2146808Y-855878D01*
X2156612Y-865378D01*
X2167585Y-873455D01*
X2179523Y-880008D01*
X2192274Y-884885D01*
X2205532Y-888085D01*
G37*
G36*
X3044596Y-889406D02*
G01*
X3058210Y-888949D01*
X3071672Y-886714D01*
X3084677Y-882650D01*
X3097072Y-876909D01*
X3108553Y-869594D01*
X3118967Y-860806D01*
X3128111Y-850646D01*
X3135833Y-839419D01*
X3141980Y-827278D01*
X3146450Y-814374D01*
X3149193Y-801014D01*
X3150108Y-787400D01*
X3149193Y-773785D01*
X3146450Y-760425D01*
X3141980Y-747522D01*
X3135833Y-735380D01*
X3128111Y-724154D01*
X3118967Y-713994D01*
X3108553Y-705205D01*
X3097072Y-697890D01*
X3084677Y-692150D01*
X3071672Y-688086D01*
X3058210Y-685850D01*
X3044596Y-685393D01*
X3031032Y-686714D01*
X3017774Y-689914D01*
X3005023Y-694791D01*
X2993085Y-701344D01*
X2982112Y-709422D01*
X2972308Y-718921D01*
X2963824Y-729640D01*
X2956864Y-741375D01*
X2951581Y-753922D01*
X2947974Y-767080D01*
X2946146Y-780592D01*
X2946146Y-794207D01*
X2947974Y-807720D01*
X2951581Y-820877D01*
X2956864Y-833424D01*
X2963824Y-845159D01*
X2972308Y-855878D01*
X2982112Y-865378D01*
X2993085Y-873455D01*
X3005023Y-880008D01*
X3017774Y-884885D01*
X3031032Y-888085D01*
G37*
G36*
X1457096Y-876706D02*
G01*
X1470710Y-876249D01*
X1484172Y-874014D01*
X1497177Y-869950D01*
X1509572Y-864209D01*
X1521053Y-856894D01*
X1531467Y-848106D01*
X1540611Y-837946D01*
X1548333Y-826719D01*
X1554480Y-814578D01*
X1558950Y-801674D01*
X1561693Y-788314D01*
X1562608Y-774700D01*
X1561693Y-761085D01*
X1558950Y-747725D01*
X1554480Y-734822D01*
X1548333Y-722680D01*
X1540611Y-711454D01*
X1531467Y-701294D01*
X1521053Y-692505D01*
X1509572Y-685190D01*
X1497177Y-679450D01*
X1484172Y-675386D01*
X1470710Y-673150D01*
X1457096Y-672693D01*
X1443532Y-674014D01*
X1430274Y-677214D01*
X1417523Y-682091D01*
X1405585Y-688644D01*
X1394612Y-696722D01*
X1384808Y-706221D01*
X1376324Y-716940D01*
X1369364Y-728675D01*
X1364081Y-741222D01*
X1360474Y-754380D01*
X1358646Y-767892D01*
X1358646Y-781507D01*
X1360474Y-795020D01*
X1364081Y-808177D01*
X1369364Y-820724D01*
X1376324Y-832459D01*
X1384808Y-843178D01*
X1394612Y-852678D01*
X1405585Y-860755D01*
X1417523Y-867308D01*
X1430274Y-872185D01*
X1443532Y-875385D01*
G37*
G36*
X640080Y-741578D02*
G01*
X640080Y-693420D01*
X591921Y-693420D01*
X595172Y-700024D01*
X602792Y-711403D01*
X611835Y-721664D01*
X622096Y-730707D01*
X633476Y-738327D01*
G37*
G36*
X731520Y-741578D02*
G01*
X738124Y-738327D01*
X749503Y-730707D01*
X759764Y-721664D01*
X768807Y-711403D01*
X776427Y-700024D01*
X779678Y-693420D01*
X731520Y-693420D01*
G37*
G36*
X5429250Y-660400D02*
G01*
X5512308Y-660400D01*
X5512308Y-572058D01*
X5511596Y-565759D01*
X5509666Y-560273D01*
X5506618Y-555396D01*
X5502503Y-551281D01*
X5497626Y-548233D01*
X5492140Y-546303D01*
X5485841Y-545592D01*
X5429250Y-545592D01*
G37*
G36*
X5206492Y-660400D02*
G01*
X5289550Y-660400D01*
X5289550Y-545592D01*
X5232958Y-545592D01*
X5226659Y-546303D01*
X5221173Y-548233D01*
X5216296Y-551281D01*
X5212181Y-555396D01*
X5209133Y-560273D01*
X5207203Y-565759D01*
X5206492Y-572058D01*
G37*
G36*
X591921Y-601980D02*
G01*
X640080Y-601980D01*
X640080Y-553821D01*
X633476Y-557072D01*
X622096Y-564692D01*
X611835Y-573735D01*
X602792Y-583996D01*
X595172Y-595376D01*
G37*
G36*
X731520Y-601980D02*
G01*
X779678Y-601980D01*
X776427Y-595376D01*
X768807Y-583996D01*
X759764Y-573735D01*
X749503Y-564692D01*
X738124Y-557072D01*
X731520Y-553821D01*
G37*
G36*
X607618Y-498348D02*
G01*
X763981Y-498348D01*
X770280Y-497636D01*
X775766Y-495706D01*
X780643Y-492658D01*
X784758Y-488543D01*
X787806Y-483666D01*
X789736Y-478180D01*
X790448Y-471881D01*
X790448Y-315518D01*
X789736Y-309219D01*
X787806Y-303733D01*
X784758Y-298856D01*
X780643Y-294741D01*
X775766Y-291693D01*
X770280Y-289763D01*
X763981Y-289052D01*
X607618Y-289052D01*
X601319Y-289763D01*
X595833Y-291693D01*
X590956Y-294741D01*
X586841Y-298856D01*
X583793Y-303733D01*
X581863Y-309219D01*
X581152Y-315518D01*
X581152Y-471881D01*
X581863Y-478180D01*
X583793Y-483666D01*
X586841Y-488543D01*
X590956Y-492658D01*
X595833Y-495706D01*
X601319Y-497636D01*
G37*

%LPD*%
D10*
X6121400Y-762000D02*
G01*
X6121400Y-266700D01*
X4559300Y-266700D01*
X4559300Y-736600D01*
X3987800Y-736600D01*
X3949700Y-774700D01*
D11*
X1460500Y-520700D02*
G01*
X1066800Y-520700D01*
X1066800Y-1866900D01*
X1193800Y-1993900D01*
X1039876Y-4330700D02*
G01*
X1128776Y-4241800D01*
X1371600Y-4241800D01*
X1460500Y-4152900D01*
X1460500Y-3949700D01*
X1574800Y-3835400D01*
X2463800Y-3835400D01*
X1979675Y-4318000D01*
X6121400Y-3810000D02*
G01*
X6121400Y-3251200D01*
X4622800Y-3251200D01*
X4622800Y-3644900D01*
X4152900Y-4114800D01*
X3124200Y-4114800D01*
X2578100Y-4660900D01*
X1790700Y-4660900D01*
X1779600Y-4649800D01*
X1779600Y-4318000D01*
X685800Y-1155700D02*
G01*
X330200Y-1155700D01*
X330200Y-1638300D01*
X685800Y-1993900D01*
X3949700Y-520700D02*
G01*
X3530600Y-520700D01*
X3530600Y-1422400D01*
X2870200Y-1422400D01*
X2870200Y-1435100D01*
X2730500Y-1574800D01*
X2311400Y-1574800D01*
X2311400Y-1638300D01*
X1955800Y-1993900D01*
X3048000Y-533400D02*
G01*
X2692400Y-533400D01*
X2692400Y-1422400D01*
X2260600Y-1422400D01*
X2032000Y-1651000D01*
X2032000Y-1663700D01*
X1701800Y-1993900D01*
X2222500Y-533400D02*
G01*
X1841500Y-914400D01*
X1841500Y-1600200D01*
X1447800Y-1993900D01*
X685800Y-901700D02*
G01*
X152400Y-901700D01*
X152400Y-1714500D01*
X431800Y-1993900D01*
D12*
G01*
X839800Y-4330700D03*
D13*
G01*
X1039799Y-4330700D03*
D12*
G01*
X1779600Y-4318000D03*
D13*
G01*
X1979599Y-4318000D03*
D14*
G01*
X5359400Y-3810000D03*
G01*
X6121400Y-3810000D03*
G01*
X5359400Y-762000D03*
G01*
X6121400Y-762000D03*
D15*
G01*
X3987800Y-1993900D03*
D16*
G01*
X3733800Y-3517900D03*
G01*
X3225800Y-3517900D03*
G01*
X2717800Y-3517900D03*
G01*
X2209800Y-3517900D03*
G01*
X1701800Y-3517900D03*
G01*
X1193800Y-3517900D03*
G01*
X685800Y-3517900D03*
G01*
X431800Y-1993900D03*
G01*
X939800Y-1993900D03*
G01*
X1447800Y-1993900D03*
G01*
X1955800Y-1993900D03*
G01*
X2463800Y-1993900D03*
G01*
X2971800Y-1993900D03*
G01*
X3479800Y-1993900D03*
G01*
X3733800Y-1993900D03*
G01*
X3225800Y-1993900D03*
G01*
X2717800Y-1993900D03*
G01*
X2209800Y-1993900D03*
G01*
X1701800Y-1993900D03*
G01*
X1193800Y-1993900D03*
G01*
X685800Y-1993900D03*
G01*
X431800Y-3517900D03*
G01*
X939800Y-3517900D03*
G01*
X1447800Y-3517900D03*
G01*
X1955800Y-3517900D03*
G01*
X2463800Y-3517900D03*
G01*
X2971800Y-3517900D03*
G01*
X3479800Y-3517900D03*
D15*
G01*
X3987800Y-3517900D03*
D18*
G01*
X3949700Y-520700D03*
G01*
X3949700Y-774700D03*
G01*
X3949700Y-1028700D03*
G01*
X3048000Y-533400D03*
G01*
X3048000Y-787400D03*
G01*
X3048000Y-1041400D03*
G01*
X2222500Y-533400D03*
G01*
X2222500Y-787400D03*
G01*
X2222500Y-1041400D03*
G01*
X1460500Y-520700D03*
G01*
X1460500Y-774700D03*
G01*
X1460500Y-1028700D03*
D19*
G01*
X685800Y-393700D03*
D20*
G01*
X685800Y-647700D03*
G01*
X685800Y-901700D03*
G01*
X685800Y-1155700D03*
M02*
